<?xml version="1.0" encoding="utf-8"?>
<!-- Generator: Adobe Illustrator 16.0.0, SVG Export Plug-In . SVG Version: 6.00 Build 0)  -->
<!DOCTYPE svg PUBLIC "-//W3C//DTD SVG 1.1//EN" "http://www.w3.org/Graphics/SVG/1.1/DTD/svg11.dtd">
<svg version="1.1" xmlns="http://www.w3.org/2000/svg" xmlns:xlink="http://www.w3.org/1999/xlink" x="0px" y="0px" width="464px"
	 height="406px" viewBox="0 0 464 406" enable-background="new 0 0 464 406" xml:space="preserve">
<g id="BACKGROUND" display="none">
	<linearGradient id="SVGID_1_" gradientUnits="userSpaceOnUse" x1="193.4995" y1="-167.8911" x2="193.4995" y2="383.1944">
		<stop  offset="0.1106" style="stop-color:#563886"/>
		<stop  offset="0.2559" style="stop-color:#4A3178"/>
		<stop  offset="0.7359" style="stop-color:#271E4F"/>
		<stop  offset="0.9829" style="stop-color:#1A163F"/>
	</linearGradient>
	<rect x="-56.5" y="-46" display="inline" fill="url(#SVGID_1_)" width="500" height="500"/>
</g>
<g id="OBJECTS">
	<polygon opacity="0.25" fill="#241033" points="70.561,102.684 83.735,95.077 96.911,102.684 83.735,110.291 	"/>
	<polygon opacity="0.25" fill="#241033" points="96.911,90.783 110.087,83.176 123.263,90.783 110.087,98.389 	"/>
	<polygon opacity="0.25" fill="#241033" points="123.263,77.147 136.438,69.541 149.614,77.147 136.438,84.755 	"/>
	<polygon opacity="0.25" fill="#241033" points="4.682,194.121 189.141,87.624 452.652,239.762 268.195,346.26 	"/>
	
		<line fill="none" stroke="#6EA8E3" stroke-width="1.4362" stroke-miterlimit="10" x1="320.896" y1="287.735" x2="382.322" y2="324.373"/>
	
		<line fill="none" stroke="#6EA8E3" stroke-width="1.3944" stroke-miterlimit="10" x1="154.332" y1="262.248" x2="93.217" y2="296.958"/>
	<polygon fill="#2C5799" points="268.195,332.966 452.652,226.47 452.652,211.255 268.195,317.752 	"/>
	<polygon fill="#FFFFFF" points="4.682,165.613 189.141,59.116 452.652,211.255 268.195,317.752 	"/>
	<path fill="#477FC2" d="M268.19,317.751v15.22L135.046,256.09l-7.407-4.27c0,0,0,0,0-0.012l-5.684-3.269l-4.173-2.414
		l-113.097-65.3v-15.207l116.069,67.011l19.524,11.271L268.19,317.751z"/>
	<polygon fill="none" stroke="#6EA8E3" stroke-width="1.0969" stroke-miterlimit="10" points="281.369,142.792 189.141,196.041 
		254.971,234.047 347.248,180.827 	"/>
	<ellipse fill="#B2B5BF" cx="277.547" cy="187.397" rx="31.042" ry="16.947"/>
	<ellipse opacity="0.25" fill="#241033" cx="85.97" cy="300.92" rx="23.699" ry="13.088"/>
	<path fill="#2C5799" d="M62.446,290.475v-3.938h2.012c3.751-4.495,11.96-7.622,21.512-7.622c9.55,0,17.76,3.127,21.513,7.622h2.186
		v6.368h-0.083c-0.842,6.806-11.08,12.187-23.616,12.187c-13.089,0-23.7-5.859-23.7-13.089
		C62.271,291.485,62.341,290.977,62.446,290.475z"/>
	<polyline fill="none" stroke="#6EA8E3" stroke-width="1.4268" stroke-miterlimit="10" points="347.529,156.785 363.235,147.717 
		363.235,117.29 	"/>
	<polygon fill="#1A1818" points="175.965,66.723 439.445,218.879 452.652,211.255 189.141,59.116 	"/>
	<polygon fill="#232223" points="439.445,218.879 439.525,234.047 452.652,226.47 452.652,211.255 	"/>
	<path fill="#121682" d="M409.873,225.613c0.009-0.146,0.009-0.286,0-0.431v-5.821l-10.492-2.28l-46.632-26.922
		c-1.201-0.693-2.682-0.693-3.882,0l-20.076,11.591l-5.568-1.21v7.598l0.118,0.024c0.242,0.962,0.85,1.846,1.827,2.409
		l41.375,23.845v8.067c0,1.133,1.052,1.971,2.155,1.717l10.42-2.539l1.281,0.74c1.2,0.691,2.677,0.691,3.877,0l23.679-13.64
		c1.152-0.663,1.764-1.776,1.891-2.935l0.027,0.006V225.613z"/>
	<ellipse fill="#FFFFFF" cx="189.14" cy="66.723" rx="4.513" ry="2.606"/>
	<ellipse fill="#F0B71E" cx="198.169" cy="71.936" rx="4.515" ry="2.605"/>
	<ellipse fill="#39B54A" cx="208.081" cy="77.147" rx="4.514" ry="2.606"/>
	<polygon fill="#41AEBE" points="162.789,89.544 175.965,81.937 202.315,97.15 189.141,104.758 	"/>
	<polygon fill="#75D2E0" points="162.789,89.544 162.789,93.347 189.141,108.218 189.141,104.758 	"/>
	<polygon fill="#2B828F" points="189.141,108.218 202.315,100.395 202.315,97.15 189.141,104.758 	"/>
	<polygon fill="#FAC230" points="195.729,108.562 208.904,100.954 235.254,116.168 222.08,123.775 	"/>
	<polygon fill="#FFDA7D" points="195.729,108.562 195.729,112.365 222.08,127.234 222.08,123.775 	"/>
	<polygon fill="#B88A14" points="222.08,127.234 235.254,119.412 235.254,116.168 222.08,123.775 	"/>
	<polygon fill="#F75852" points="228.667,127.395 241.843,119.789 268.195,135.002 255.02,142.609 	"/>
	<polygon fill="#ED7F7C" points="228.667,127.395 228.667,131.199 255.02,146.069 255.02,142.609 	"/>
	<polygon fill="#CF4944" points="255.02,146.069 268.195,138.246 268.195,135.002 255.02,142.609 	"/>
	<path fill="#2E3192" d="M407.958,216.434l-55.209-31.875c-1.201-0.693-2.682-0.693-3.882,0l-23.703,13.684
		c-2.589,1.496-2.588,5.235,0.004,6.728l41.375,23.844v8.068c0,1.132,1.052,1.97,2.155,1.717l10.42-2.538l1.281,0.738
		c1.2,0.692,2.677,0.692,3.877,0.001l23.679-13.639C410.547,221.668,410.549,217.93,407.958,216.434z"/>
	<polygon fill="#1D6CFF" points="337.644,201.285 353.614,210.496 365.516,202.956 350.153,194.063 	"/>
	<polygon fill="#6EA8E3" points="361.2,209.054 382.159,221.156 384.682,219.594 363.485,207.576 	"/>
	<polygon fill="#6EA8E3" points="357.163,211.973 378.124,224.074 380.644,222.514 359.448,210.496 	"/>
	<polygon fill="#6EA8E3" points="365.516,206.14 386.476,218.24 388.996,216.679 367.801,204.663 	"/>
	<polygon fill="#B2B5BF" points="145.663,100.36 224.717,145.819 158.839,184.037 79.786,138.395 	"/>
	<linearGradient id="SVGID_2_" gradientUnits="userSpaceOnUse" x1="186.6899" y1="109.3477" x2="110.0002" y2="153.9347">
		<stop  offset="0.1106" style="stop-color:#1CA0E8"/>
		<stop  offset="0.6361" style="stop-color:#1787C3"/>
		<stop  offset="0.9345" style="stop-color:#157DB3"/>
	</linearGradient>
	<polygon fill="url(#SVGID_2_)" points="145.663,87.624 224.717,133.083 158.839,171.3 79.786,125.658 	"/>
	<ellipse fill="#1A1A1A" cx="152.251" cy="126.984" rx="17.018" ry="11.486"/>
	<polygon fill="#FFFFFF" points="142.589,128.353 155.896,120.822 158.839,129.462 	"/>
	<polygon fill="#060607" points="307.752,218.879 268.195,241.683 320.896,272.11 360.424,249.289 	"/>
	<polygon fill="#9140CF" points="268.195,241.683 268.195,244.914 320.896,275.136 320.896,272.11 	"/>
	<polygon fill="#3D1B57" points="320.896,275.136 360.424,252.49 360.424,249.289 320.896,272.11 	"/>
	<polygon fill="#4A88FF" points="79.786,125.658 79.786,129.462 158.839,175.329 158.839,171.3 	"/>
	<polygon fill="#022F86" points="158.839,175.329 224.717,136.79 224.717,133.083 158.839,171.3 	"/>
	<polygon fill="#FECC14" points="182.333,199.948 188.702,203.625 182.333,207.302 175.965,203.625 	"/>
	<polygon fill="#6EA8E3" points="184.066,208.302 190.464,204.643 214.173,218.331 207.806,222.009 	"/>
	<polygon fill="#1B5DA0" points="226.177,194.882 232.546,198.558 226.177,202.234 219.81,198.558 	"/>
	<polygon fill="#6EA8E3" points="227.911,203.237 234.309,199.577 258.018,213.266 251.65,216.942 	"/>
	<polygon fill="#F2222F" points="216.59,219.623 222.958,223.3 216.59,226.976 210.222,223.3 	"/>
	<polygon fill="#6EA8E3" points="218.323,227.976 224.721,224.315 248.431,238.006 242.063,241.683 	"/>
	<polygon fill="#022F86" points="24.242,161.996 24.242,142.217 41.369,152.107 41.369,171.884 	"/>
	<polygon fill="#1D6CFF" points="41.369,152.107 58.498,142.217 58.498,161.996 41.369,171.884 	"/>
	<polygon fill="#4A88FF" points="24.242,142.217 41.369,132.329 58.498,142.217 41.369,152.107 	"/>
	<g>
		<polygon fill="#E6E6E6" points="37.422,143.989 37.422,127.936 51.324,119.909 51.324,135.962 		"/>
		<polygon fill="#CCCCCC" points="35.419,126.794 37.422,127.936 51.324,119.909 49.321,118.768 		"/>
		<polygon fill="#999999" points="35.419,126.794 35.419,142.848 37.422,143.989 37.422,127.936 		"/>
	</g>
	<polygon fill="#1DE4FF" points="58.498,181.773 58.498,161.996 75.625,171.884 75.625,191.662 	"/>
	<polygon fill="#027686" points="75.625,171.884 92.754,161.996 92.754,181.773 75.625,191.662 	"/>
	<polygon fill="#4AEAFF" points="58.498,161.996 75.625,152.106 92.754,161.996 75.625,171.884 	"/>
	<g>
		<polygon fill="#E6E6E6" points="71.678,163.767 71.678,147.713 85.581,139.688 85.581,155.74 		"/>
		<polygon fill="#CCCCCC" points="69.676,146.573 71.678,147.713 85.581,139.688 83.578,138.546 		"/>
		<polygon fill="#999999" points="69.676,146.573 69.676,162.626 71.678,163.767 71.678,147.713 		"/>
	</g>
	<polygon fill="#5A1591" points="92.754,201.47 92.754,181.693 109.881,191.582 109.881,211.359 	"/>
	<polygon fill="#7B16C9" points="109.881,191.582 127.01,181.693 127.01,201.47 109.881,211.359 	"/>
	<polygon fill="#9B60C9" points="92.754,181.693 109.881,171.804 127.01,181.693 109.881,191.582 	"/>
	<g>
		<polygon fill="#E6E6E6" points="105.936,183.463 105.936,167.411 119.837,159.385 119.837,175.438 		"/>
		<polygon fill="#CCCCCC" points="103.932,166.271 105.936,167.411 119.837,159.385 117.834,158.244 		"/>
		<polygon fill="#999999" points="103.932,166.271 103.932,182.323 105.936,183.463 105.936,167.411 		"/>
	</g>
	<polygon fill="#0B4FE8" points="83.735,104.758 70.561,97.15 70.561,81.937 83.735,89.544 	"/>
	<polygon fill="#3ACAFF" points="83.735,104.758 96.911,97.15 96.911,81.937 83.735,89.544 	"/>
	<polygon fill="#7DDCFF" points="70.561,81.937 83.735,74.329 96.911,81.937 83.735,89.544 	"/>
	<polygon fill="#ED4A08" points="110.087,89.544 96.911,81.937 96.911,51.509 110.087,59.116 	"/>
	<polygon fill="#F0B71E" points="110.087,89.544 123.263,81.937 123.263,51.509 110.087,59.116 	"/>
	<polygon fill="#F0CF76" points="96.911,51.509 110.087,43.902 123.263,51.509 110.087,59.116 	"/>
	<polygon fill="#5A1591" points="136.438,74.33 123.263,66.723 123.263,21.081 136.438,28.688 	"/>
	<polygon fill="#7B16C9" points="136.438,74.33 149.614,66.723 149.614,21.081 136.438,28.688 	"/>
	<polygon fill="#9B60C9" points="123.263,21.081 136.438,13.474 149.614,21.081 136.438,28.688 	"/>
	<g>
		<path fill="#1A1818" d="M252.759,46.523c-0.034-2.735-0.421-5.583-1.129-8.435l4.96-3.265l-2.36-5.48l-2.355-5.468l-5.964,0.894
			c-1.589-2.499-3.399-4.781-5.379-6.749l0.19-7.925l-3.98-2.466l-3.872-2.398l-3.404,1.537l1.342,3.62l0.553-0.073l-0.438,1.479
			c-2.001-0.64-3.901-0.839-5.652-0.627l-3.818-6.844l-0.425,0.26l0.066-0.26l-3.045,1.538l0.152,0.454l-2.206,1.351l2.305,7.382
			c-1.094,1.328-1.977,2.972-2.614,4.893l-4.744-2.285l-3.404,1.538l3.058,2.368l-0.021,0.214l-0.359,4.034l4.423,4.426
			c0.181,2.374,0.613,4.795,1.261,7.189l-3.125,2.608l1.842,4.367l1.844,4.373l4.166-0.157c1.281,2.167,2.742,4.215,4.35,6.069
			l0.041,6.163l2.656,2.242l-1.474,1.027l1.954,3.79l3.405-1.538l1.762-4.83c1.885,0.991,3.745,1.616,5.525,1.868l2.771,5.079
			l-0.43-0.043l0.563,0.288l0.908,1.667l1.731-0.31l1.337,0.687l3.404-1.537l-2.33-7.597c1.005-0.708,1.906-1.624,2.694-2.723
			l3.858,3.588l3.405-1.538l1.013-4.335l1.039-4.446L252.759,46.523z M242.204,45.139c-1.157,6.333-6.475,7.851-11.727,3.734
			c-5.059-3.964-8.426-11.91-7.664-18.057c0.788-6.356,5.71-8.723,11.158-4.958C239.644,29.778,243.406,38.575,242.204,45.139z"/>
		<path fill="#1A1818" d="M249.355,48.061c-0.035-2.735-0.422-5.583-1.129-8.436l4.959-3.264l-2.359-5.48l-2.355-5.469l-5.964,0.893
			c-1.589-2.498-3.4-4.78-5.378-6.748l0.19-7.925l-3.982-2.467l-3.872-2.398l-1.948,6.564c-1.998-0.641-3.901-0.839-5.651-0.628
			l-3.818-6.843l-2.776,1.7l-2.682,1.641l2.305,7.383c-1.094,1.327-1.977,2.97-2.612,4.892l-4.746-2.284l-0.366,4.119l-0.358,4.033
			l4.421,4.426c0.181,2.375,0.612,4.796,1.261,7.19l-3.124,2.608l1.84,4.366l1.847,4.374l4.166-0.157
			c1.28,2.168,2.74,4.215,4.349,6.069l0.04,6.163l3.232,2.728l3.309,2.794l1.763-4.831c1.885,0.992,3.746,1.617,5.526,1.869
			l3.812,6.991l3.18-0.571l3.292-0.59l-2.33-7.597c1.431-1.006,2.662-2.415,3.637-4.21l6.32,3.538l1.013-4.336l1.042-4.446
			L249.355,48.061z M227.073,50.41c-5.058-3.964-8.425-11.909-7.662-18.056c0.787-6.356,5.709-8.724,11.157-4.958
			c5.67,3.919,9.434,12.716,8.233,19.28C237.643,53.009,232.325,54.526,227.073,50.41z"/>
	</g>
	<g>
		<path fill="#2E3192" d="M284.774,43.916c-0.02-1.635-0.249-3.337-0.672-5.042l2.963-1.952l-1.412-3.276l-1.407-3.268l-3.564,0.534
			c-0.949-1.493-2.031-2.857-3.213-4.034l0.112-4.736l-2.379-1.474l-2.315-1.434l-2.033,0.919l0.803,2.165l0.327-0.044l-0.262,0.884
			c-1.194-0.383-2.33-0.501-3.377-0.375l-2.283-4.091l-0.253,0.156l0.038-0.156l-1.817,0.919l0.09,0.271l-1.319,0.808l1.378,4.412
			c-0.654,0.794-1.182,1.776-1.562,2.926l-2.837-1.366l-2.033,0.919l1.825,1.415l-0.011,0.128l-0.215,2.411l2.643,2.646
			c0.109,1.419,0.366,2.866,0.754,4.297l-1.868,1.558l1.101,2.61l1.102,2.614l2.492-0.094c0.764,1.296,1.638,2.52,2.599,3.627
			l0.026,3.684l1.677,1.417l-0.972,0.538l1.169,2.265l2.034-0.919l1.055-2.887c1.126,0.592,2.237,0.966,3.303,1.116l1.654,3.037
			l-0.256-0.026l0.337,0.173l0.542,0.996L279.771,58l0.799,0.411l2.035-0.918l-1.393-4.542c0.6-0.421,1.138-0.97,1.609-1.626
			l2.306,2.145l2.036-0.918l0.606-2.592l0.62-2.658L284.774,43.916z M278.469,43.088c-0.693,3.785-3.872,4.692-7.012,2.232
			c-3.023-2.371-5.035-7.119-4.579-10.793c0.471-3.799,3.411-5.214,6.67-2.963C276.937,33.906,279.187,39.164,278.469,43.088z"/>
		<path fill="#2E3192" d="M282.742,44.833c-0.021-1.634-0.252-3.336-0.676-5.041l2.964-1.952l-1.41-3.275l-1.407-3.269l-3.564,0.534
			c-0.95-1.494-2.031-2.857-3.216-4.034l0.113-4.737l-2.379-1.474l-2.313-1.434l-1.166,3.923c-1.194-0.382-2.331-0.501-3.377-0.375
			l-2.281-4.091l-1.66,1.017l-1.604,0.981l1.377,4.413c-0.654,0.793-1.181,1.775-1.561,2.924l-2.836-1.365l-0.221,2.463
			l-0.214,2.411l2.643,2.645c0.109,1.419,0.365,2.866,0.753,4.298l-1.867,1.559l1.102,2.61l1.102,2.614l2.491-0.094
			c0.766,1.296,1.638,2.52,2.599,3.627l0.024,3.684l1.933,1.63l1.978,1.67l1.054-2.888c1.127,0.592,2.237,0.966,3.303,1.117
			l2.278,4.179l1.9-0.341l1.968-0.353l-1.393-4.541c0.854-0.602,1.592-1.443,2.174-2.517l3.776,2.115l0.607-2.591l0.622-2.658
			L282.742,44.833z M269.422,46.239c-3.021-2.371-5.035-7.119-4.58-10.793c0.472-3.799,3.414-5.215,6.67-2.964
			c3.391,2.343,5.64,7.601,4.921,11.524C275.74,47.792,272.563,48.699,269.422,46.239z"/>
	</g>
	<path fill="#911116" d="M273.892,78.644c-0.015-1.174-0.18-2.396-0.482-3.619l2.126-1.4l-1.013-2.352l-1.01-2.345l-2.558,0.383
		c-0.682-1.072-1.459-2.051-2.308-2.895l0.082-3.399l-1.708-1.058l-1.661-1.029l-1.46,0.66l0.575,1.553l0.237-0.032l-0.188,0.635
		c-0.857-0.274-1.673-0.36-2.425-0.269l-1.637-2.936l-0.182,0.112l0.026-0.112l-1.305,0.66l0.065,0.194l-0.947,0.58l0.989,3.167
		c-0.47,0.569-0.849,1.274-1.122,2.098l-2.035-0.979l-1.461,0.659l1.312,1.016l-0.009,0.092l-0.153,1.73l1.897,1.898
		c0.077,1.019,0.263,2.058,0.541,3.084l-1.341,1.118l0.789,1.873l0.792,1.876l1.788-0.068c0.549,0.93,1.174,1.809,1.864,2.604
		l0.018,2.644l1.083,0.915l-0.575,0.488l0.839,1.626l1.46-0.66l0.757-2.072c0.807,0.425,1.606,0.693,2.369,0.801l1.187,2.179
		l-0.182-0.019l0.242,0.124l0.388,0.714l0.742-0.133l0.575,0.295l1.461-0.66l-1.001-3.259c0.431-0.303,0.816-0.697,1.155-1.168
		l1.656,1.54l1.46-0.66l0.436-1.86l0.445-1.907L273.892,78.644z M269.365,78.049c-0.497,2.717-2.778,3.368-5.03,1.603
		c-2.169-1.702-3.615-5.109-3.287-7.747c0.337-2.726,2.448-3.741,4.785-2.126C268.266,71.46,269.881,75.233,269.365,78.049z"/>
	<path fill="#5A1591" d="M272.434,79.303c-0.016-1.173-0.182-2.395-0.484-3.619l2.126-1.401l-1.012-2.35l-1.01-2.346l-2.559,0.383
		c-0.683-1.072-1.459-2.051-2.307-2.895l0.08-3.399l-1.707-1.058L263.9,61.59l-0.837,2.815c-0.856-0.274-1.674-0.36-2.423-0.269
		l-1.638-2.936l-1.19,0.729l-1.151,0.705l0.989,3.167c-0.47,0.569-0.849,1.274-1.123,2.099l-2.035-0.98l-0.154,1.768l-0.156,1.73
		l1.896,1.898c0.078,1.019,0.264,2.057,0.541,3.084l-1.34,1.119l0.79,1.873l0.792,1.875l1.786-0.067
		c0.55,0.93,1.177,1.808,1.865,2.604l0.019,2.643l1.385,1.17l1.421,1.199l0.757-2.072c0.808,0.425,1.605,0.693,2.369,0.802
		l1.636,2.999l1.364-0.245l1.412-0.253l-1.001-3.259c0.613-0.432,1.143-1.036,1.562-1.806l2.711,1.518l0.435-1.86l0.445-1.907
		L272.434,79.303z M262.873,80.31c-2.169-1.701-3.613-5.108-3.285-7.745c0.336-2.727,2.447-3.743,4.784-2.126
		c2.433,1.681,4.049,5.454,3.533,8.27C267.408,81.425,265.128,82.076,262.873,80.31z"/>
	<path fill="#ED4A08" d="M308.563,183.505c0.002-0.098,0.026-0.191,0.026-0.29s-0.024-0.193-0.026-0.291v-6.356l-2.477-0.023
		c-4.744-6.042-15.732-10.278-28.54-10.278c-12.422,0-23.11,3.994-28.071,9.75l-2.971-0.028v7.876h0.06
		c0.631,9.057,14.24,16.298,30.982,16.298c16.743,0,30.352-7.241,30.982-16.298h0.034V183.505z"/>
	<ellipse fill="#F0B71E" cx="277.547" cy="175.989" rx="31.042" ry="16.948"/>
	<g>
		
			<line fill="none" stroke="#FFFFFF" stroke-width="0.5301" stroke-miterlimit="10" x1="165.515" y1="228.071" x2="173.257" y2="223.576"/>
		
			<line fill="none" stroke="#FFFFFF" stroke-width="0.5301" stroke-miterlimit="10" x1="168.265" y1="229.632" x2="176.006" y2="225.137"/>
		
			<line fill="none" stroke="#FFFFFF" stroke-width="0.5301" stroke-miterlimit="10" x1="171.015" y1="231.19" x2="178.756" y2="226.696"/>
		
			<line fill="none" stroke="#FFFFFF" stroke-width="0.5301" stroke-miterlimit="10" x1="173.765" y1="232.749" x2="181.506" y2="228.257"/>
		
			<line fill="none" stroke="#FFFFFF" stroke-width="0.5301" stroke-miterlimit="10" x1="176.514" y1="234.31" x2="184.255" y2="229.814"/>
		
			<line fill="none" stroke="#FFFFFF" stroke-width="0.5301" stroke-miterlimit="10" x1="179.264" y1="235.87" x2="187.006" y2="231.374"/>
		
			<line fill="none" stroke="#FFFFFF" stroke-width="0.5301" stroke-miterlimit="10" x1="182.014" y1="237.429" x2="189.755" y2="232.934"/>
		
			<line fill="none" stroke="#FFFFFF" stroke-width="0.5301" stroke-miterlimit="10" x1="184.763" y1="238.987" x2="192.506" y2="234.493"/>
		
			<line fill="none" stroke="#FFFFFF" stroke-width="0.5301" stroke-miterlimit="10" x1="187.513" y1="240.547" x2="195.255" y2="236.052"/>
		
			<line fill="none" stroke="#FFFFFF" stroke-width="0.5301" stroke-miterlimit="10" x1="190.263" y1="242.106" x2="198.005" y2="237.611"/>
		
			<line fill="none" stroke="#FFFFFF" stroke-width="0.5301" stroke-miterlimit="10" x1="193.013" y1="243.666" x2="200.755" y2="239.171"/>
		
			<line fill="none" stroke="#FFFFFF" stroke-width="0.5301" stroke-miterlimit="10" x1="195.763" y1="245.225" x2="203.504" y2="240.729"/>
		
			<line fill="none" stroke="#FFFFFF" stroke-width="0.5301" stroke-miterlimit="10" x1="198.514" y1="246.784" x2="206.255" y2="242.289"/>
		
			<line fill="none" stroke="#FFFFFF" stroke-width="0.5301" stroke-miterlimit="10" x1="201.264" y1="248.344" x2="209.005" y2="243.85"/>
		
			<line fill="none" stroke="#FFFFFF" stroke-width="0.5301" stroke-miterlimit="10" x1="204.012" y1="249.903" x2="211.755" y2="245.409"/>
		
			<line fill="none" stroke="#FFFFFF" stroke-width="0.5301" stroke-miterlimit="10" x1="206.762" y1="251.464" x2="214.504" y2="246.968"/>
		
			<line fill="none" stroke="#FFFFFF" stroke-width="0.5301" stroke-miterlimit="10" x1="209.512" y1="253.021" x2="217.254" y2="248.527"/>
		
			<line fill="none" stroke="#FFFFFF" stroke-width="0.5301" stroke-miterlimit="10" x1="212.262" y1="254.581" x2="220.004" y2="250.087"/>
		
			<line fill="none" stroke="#FFFFFF" stroke-width="0.5301" stroke-miterlimit="10" x1="215.011" y1="256.141" x2="222.754" y2="251.646"/>
		
			<line fill="none" stroke="#FFFFFF" stroke-width="0.5301" stroke-miterlimit="10" x1="217.761" y1="257.7" x2="225.503" y2="253.205"/>
		
			<line fill="none" stroke="#FFFFFF" stroke-width="0.5301" stroke-miterlimit="10" x1="220.511" y1="259.258" x2="228.253" y2="254.766"/>
		
			<line fill="none" stroke="#FFFFFF" stroke-width="0.5301" stroke-miterlimit="10" x1="223.261" y1="260.817" x2="231.001" y2="256.324"/>
		
			<line fill="none" stroke="#FFFFFF" stroke-width="0.5301" stroke-miterlimit="10" x1="226.011" y1="262.378" x2="233.753" y2="257.882"/>
		
			<line fill="none" stroke="#FFFFFF" stroke-width="0.5301" stroke-miterlimit="10" x1="228.76" y1="263.938" x2="236.502" y2="259.441"/>
		
			<line fill="none" stroke="#FFFFFF" stroke-width="0.5301" stroke-miterlimit="10" x1="231.511" y1="265.495" x2="239.252" y2="261.002"/>
		
			<line fill="none" stroke="#FFFFFF" stroke-width="0.5301" stroke-miterlimit="10" x1="234.26" y1="267.056" x2="242.001" y2="262.562"/>
		
			<line fill="none" stroke="#FFFFFF" stroke-width="0.5301" stroke-miterlimit="10" x1="237.011" y1="268.615" x2="244.752" y2="264.12"/>
		
			<line fill="none" stroke="#FFFFFF" stroke-width="0.5301" stroke-miterlimit="10" x1="239.76" y1="270.176" x2="247.502" y2="265.68"/>
		
			<line fill="none" stroke="#FFFFFF" stroke-width="0.5301" stroke-miterlimit="10" x1="242.509" y1="271.733" x2="250.252" y2="267.24"/>
		
			<line fill="none" stroke="#FFFFFF" stroke-width="0.5301" stroke-miterlimit="10" x1="245.259" y1="273.293" x2="253.001" y2="268.799"/>
		
			<line fill="none" stroke="#FFFFFF" stroke-width="0.5301" stroke-miterlimit="10" x1="248.01" y1="274.854" x2="255.75" y2="270.357"/>
		
			<line fill="none" stroke="#FFFFFF" stroke-width="0.5301" stroke-miterlimit="10" x1="250.759" y1="276.412" x2="258.502" y2="271.917"/>
		
			<line fill="none" stroke="#FFFFFF" stroke-width="0.5301" stroke-miterlimit="10" x1="253.509" y1="277.971" x2="261.251" y2="273.478"/>
		
			<line fill="none" stroke="#FFFFFF" stroke-width="0.5301" stroke-miterlimit="10" x1="256.258" y1="279.53" x2="264.001" y2="275.035"/>
		
			<line fill="none" stroke="#FFFFFF" stroke-width="0.5301" stroke-miterlimit="10" x1="259.009" y1="281.091" x2="266.749" y2="276.595"/>
		
			<line fill="none" stroke="#FFFFFF" stroke-width="0.5301" stroke-miterlimit="10" x1="261.759" y1="282.649" x2="269.499" y2="278.154"/>
		
			<line fill="none" stroke="#FFFFFF" stroke-width="0.5301" stroke-miterlimit="10" x1="264.509" y1="284.208" x2="272.25" y2="279.716"/>
		
			<line fill="none" stroke="#FFFFFF" stroke-width="0.5301" stroke-miterlimit="10" x1="267.258" y1="285.768" x2="275" y2="281.273"/>
		
			<line fill="none" stroke="#FFFFFF" stroke-width="0.5301" stroke-miterlimit="10" x1="270.009" y1="287.328" x2="277.749" y2="282.833"/>
		
			<line fill="none" stroke="#FFFFFF" stroke-width="0.5301" stroke-miterlimit="10" x1="272.759" y1="288.886" x2="280.499" y2="284.393"/>
		
			<line fill="none" stroke="#FFFFFF" stroke-width="0.5301" stroke-miterlimit="10" x1="275.509" y1="290.445" x2="283.25" y2="285.953"/>
		
			<line fill="none" stroke="#FFFFFF" stroke-width="0.5301" stroke-miterlimit="10" x1="278.257" y1="292.005" x2="286" y2="287.512"/>
	</g>
	<g>
		<polygon fill="#860207" points="249.136,248.8 249.136,269.55 236.077,277.083 236.077,256.337 		"/>
		<polygon fill="#FF1D25" points="236.077,277.083 232.874,275.103 232.874,254.472 236.077,256.337 		"/>
		<polygon fill="#FF4A51" points="249.136,248.8 245.931,246.934 232.874,254.472 236.077,256.337 		"/>
	</g>
	<g>
		<polygon fill="#027686" points="256.448,252.983 256.448,273.734 243.391,281.265 243.391,260.52 		"/>
		<polygon fill="#1DE4FF" points="243.391,281.265 240.186,279.288 240.186,258.655 243.391,260.52 		"/>
		<polygon fill="#4AEAFF" points="256.448,252.983 253.244,251.118 240.186,258.655 243.391,260.52 		"/>
	</g>
	<g>
		<polygon fill="#866102" points="264.578,257.685 264.578,278.436 251.521,285.968 251.521,265.223 		"/>
		<polygon fill="#FFBF1D" points="251.521,285.968 248.317,283.989 248.317,263.355 251.521,265.223 		"/>
		<polygon fill="#FFCC4A" points="264.578,257.685 261.375,255.819 248.317,263.355 251.521,265.223 		"/>
	</g>
	<g>
		<polygon fill="#022F86" points="272.093,262.007 272.093,282.759 259.036,290.293 259.036,269.546 		"/>
		<polygon fill="#1D6CFF" points="259.036,290.293 255.832,288.312 255.832,267.68 259.036,269.546 		"/>
		<polygon fill="#4A88FF" points="272.093,262.007 268.89,260.142 255.832,267.68 259.036,269.546 		"/>
	</g>
	<polygon fill="#FAC230" points="339.804,258.155 320.896,269.064 273.465,241.686 286.719,234.044 301.949,235.179 305.587,246.97 
		339.185,247.656 	"/>
	<ellipse fill="#FAC230" cx="313.508" cy="233.967" rx="4.918" ry="2.775"/>
	<path fill="#3ACAFF" d="M298.821,188.326v7.229c-5.269,2.713-12.307,4.441-20.073,4.601l-0.144-7.229l-1.062-16.938
		L298.821,188.326z"/>
	<path fill="#0B4FE8" d="M298.821,188.326v7.229c-5.269,2.713-12.307,4.441-20.073,4.601l-0.144-7.229
		C286.427,192.783,293.51,191.055,298.821,188.326z"/>
	<g>
		<path fill="#FFFFFF" d="M319.376,92.556l-1.366-4.723l-1.533,2.962l-1.896-1.153l-2.29-7.165l1.914,1.108l1.393,5.018l1.542-3.302
			l1.914,1.118l1.391,5.096l1.657-3.315l2.001,1.168l-2.758,4.382L319.376,92.556z"/>
		<path fill="#FFFFFF" d="M331.653,100.013l-1.43-4.946l-1.749,3.016l-2.077-1.262l-2.408-7.504l2.097,1.214l1.454,5.25l1.764-3.369
			l2.099,1.227l1.451,5.337l1.896-3.38l2.199,1.285l-3.135,4.446L331.653,100.013z"/>
		<path fill="#FFFFFF" d="M345.15,108.212l-1.501-5.192l-2,3.066l-2.284-1.389l-2.541-7.878l2.309,1.337l1.521,5.504l2.021-3.434
			l2.314,1.352l1.518,5.6l2.176-3.44l2.429,1.419l-3.578,4.502L345.15,108.212z"/>
		<path fill="#FFFFFF" d="M353.289,112.274c-0.044,0.544-0.594,0.631-1.321,0.19c-0.705-0.429-1.203-1.149-1.16-1.691
			c0.042-0.553,0.6-0.613,1.31-0.187C352.844,111.024,353.333,111.717,353.289,112.274z"/>
	</g>
	<g>
		<ellipse opacity="0.25" fill="#241033" cx="437.061" cy="305.082" rx="23.7" ry="13.09"/>
		<path fill="#0B4FE8" d="M460.586,294.639v-3.939h-2.014c-3.75-4.494-11.961-7.621-21.512-7.621c-9.55,0-17.758,3.127-21.512,7.621
			h-2.188v6.367h0.083c0.843,6.809,11.08,12.188,23.616,12.188c13.091,0,23.7-5.86,23.7-13.089
			C460.761,295.649,460.691,295.14,460.586,294.639z"/>
		<ellipse fill="#4A88FF" cx="437.061" cy="290.092" rx="23.7" ry="13.088"/>
		<g>
			<polygon fill="none" stroke="#FF1D25" stroke-width="0.2034" stroke-miterlimit="10" points="431.401,267.255 431.401,241.9 
				460.754,258.846 460.754,284.114 			"/>
			<polygon fill="#EEEEEE" points="430.144,267.911 430.144,242.556 459.497,259.503 459.497,284.768 			"/>
			<polygon fill="#333333" points="431.974,266.853 431.974,245.725 457.665,260.56 457.665,281.607 			"/>
			<polygon fill="#EEEEEE" points="459.497,284.768 460.754,284.114 460.754,258.846 459.497,259.503 			"/>
			<polygon fill="#AFAFAF" points="459.497,259.503 460.754,258.846 431.401,241.9 430.144,242.556 			"/>
			<polygon fill="#EEEEEE" points="430.144,267.911 408.187,280.589 437.461,297.489 459.497,284.768 			"/>
			<path fill="#AFAFAF" d="M418.634,276.663l25.954,14.603l-0.842,0.484c-0.438,0.247-1.152,0.247-1.582,0l-24.034-13.878
				c-0.439-0.247-0.439-0.658,0-0.916L418.634,276.663z"/>
			<polygon fill="#AFAFAF" points="445.396,290.746 419.559,276.134 420.454,275.611 446.399,290.213 			"/>
			<polygon fill="#AFAFAF" points="448.23,289.161 447.325,289.683 421.389,275.081 422.285,274.561 			"/>
			<polygon fill="#AFAFAF" points="450.051,288.109 449.144,288.632 423.208,274.029 424.104,273.508 			"/>
			<polygon fill="#AFAFAF" points="451.871,287.058 450.976,287.579 425.038,272.978 425.925,272.455 			"/>
			<polygon fill="#AFAFAF" points="453.7,286.006 452.796,286.527 426.851,271.925 427.754,271.404 			"/>
			<path fill="#AFAFAF" d="M455.037,285.228l-0.421,0.237l-25.938-14.592l0.677-0.394c0.43-0.247,1.145-0.247,1.582,0l24.1,13.843
				C455.475,284.567,455.475,284.979,455.037,285.228z"/>
			<polygon fill="#AFAFAF" points="408.187,280.589 408.187,281.896 437.461,298.879 437.461,297.489 			"/>
			<polygon fill="#EEEEEE" points="437.461,298.879 460.754,285.581 460.754,284.114 437.461,297.489 			"/>
			<g>
				<path fill="#AFAFAF" d="M429.384,288.565c-0.073,0-0.148-0.018-0.219-0.055l-5.802-3.165c-0.222-0.12-0.305-0.397-0.184-0.62
					c0.12-0.222,0.4-0.304,0.621-0.182l5.803,3.162c0.223,0.123,0.305,0.4,0.182,0.622
					C429.703,288.479,429.545,288.565,429.384,288.565z"/>
			</g>
			<polygon opacity="0.23" fill="#E2E2E2" points="442.953,252.064 449.108,276.692 457.426,281.47 457.665,260.56 			"/>
		</g>
		<ellipse opacity="0.25" fill="#241033" cx="396.179" cy="378.104" rx="16.997" ry="5.751"/>
		<path fill="#13041F" d="M381.61,313.941c0,0-0.386,6.359-0.211,8.249c0.174,1.89,4.53,12.476,4.437,17.316
			c-0.092,4.843,0.607,30.998,0.607,30.998s1.449,0.625,4.278-0.048c0,0,3.911-24.088,3.84-24.492
			c-0.07-0.405,0.036-11.034,0.036-11.034l3.03,15.972c0,0,2.602,15.401,2.222,19.294c0,0,2.279,0.664,4.047,0.261
			c0,0,2.564-29.748,2.179-33.776s-1.512-22.236-1.512-22.236l-22.435-1.898L381.61,313.941z"/>
		<path fill="#FCD3B7" d="M417.583,286.695l2.396-2.938c0,0,0.249-4.416,1.178-4.332c0.931,0.086,0.714,1.348,1.042,1.942
			c0.327,0.599,1.373-0.181,2.171-1.034c0.801-0.852,2.484-2.545,3.057-2.502c0.574,0.041,0.063,2.001-0.435,3.268
			c-0.498,1.267-5.835,8.616-5.835,8.616l-4.313-1.305L417.583,286.695z"/>
		<polygon fill="#FCD3B7" points="398.674,256.036 400.265,257.68 401.471,258.996 402.219,265.559 400.265,271.141 
			397.833,272.895 396.316,260.765 		"/>
		<path fill="#0F0D0E" d="M399.235,274.347c0,0,7.029,1.027,8.443,8.925c1.415,7.896,2.306,12.518,2.306,12.518l7.599-9.094
			c0,0,2.759-0.291,4.054,2.172l-10.151,15.453c0,0-2.891,1.704-5.137-2.147c-2.249-3.852-2.977-4.644-2.977-4.644l1.077,18.235
			c0,0-9.436,4.101-22.839-1.823l0.519-29.895c0,0-0.199-10.586,5.589-11.071C393.505,272.49,399.235,274.347,399.235,274.347z"/>
		<path fill="#251404" d="M390.902,255.271c0,0,2.031-2.426,4.738-2.023c2.709,0.401,4.84,2.067,5.062,4.988s1.208,7.151,0,8.729
			c-1.21,1.58-1.911,3.748-1.723,5.232c0.188,1.484,3.356,9.713,1.229,12.722c-2.127,3.009-6.342,6.59-12.265,4.797
			c-5.923-1.796-7.354-10.616-5.382-14.011c1.971-3.395,4.984-4.772,4.697-8.3C386.974,263.878,387.227,254.289,390.902,255.271z"/>
		<polygon fill="#13041F" points="386.443,370.505 386.361,374.494 386.607,376.673 386.874,380.974 387.91,380.974 
			388.273,375.507 388.985,374.902 391.38,378.725 393.734,379.035 396.981,377.551 397.628,375.507 397.628,374.902 
			394.36,374.298 390.712,370.196 387.493,370.027 		"/>
		<polygon fill="#13041F" points="399.84,370.127 399.759,374.116 400.004,376.298 400.271,380.595 401.308,380.595 
			401.671,375.131 402.384,374.525 404.777,378.348 407.131,378.658 410.379,377.176 411.025,375.131 411.025,374.525 
			407.758,373.922 403.896,370.457 400.891,369.651 		"/>
	</g>
	<path fill="#13041F" d="M145.796,227.986c0,0,1.239,7.073-5.521,10.904c-6.761,3.83-10.126,24.271-11.042,30.35
		c0,0-4.107,1.415-5.303-0.194c-1.195-1.609,1.011-26.387,2.602-31.644c0,0-4.047,3.704-6.004,12.319l-2.421,15.108
		c0,0-3.848,1.754-5.822-0.871c0,0,1.356-28.717,3.186-31.235c1.828-2.518,11.77-10.86,11.77-10.86l18.556,4.282V227.986z"/>
	<path fill="#13041F" d="M112.286,263.959c0,0-1.441,1.943-2.797,2.469c-1.354,0.523-4.986,3.209-4.908,4.533
		c0.079,1.321,4.577,0.781,6.411-0.255c1.833-1.036,2.658-1.765,3.334-1.87l0.205,0.458c0,0,2.438,0.376,3.172,0
		c0,0,0.554-2.473,0.405-4.464l-1.756-0.301L112.286,263.959z"/>
	<path fill="#13041F" d="M123.931,269.046c0,0-0.84,4.208-1.901,5.286c-1.061,1.077-2.47,3.4-1.9,4.053
		c0.568,0.651,1.983,1.667,3.874-0.331c1.889-1.998,3.12-3.416,3.713-4.73l0.173,0.814l1.515-1.11c0,0,0.158-1.984-0.17-3.787
		l-2.886-1.548L123.931,269.046z"/>
	<path fill="#383A34" d="M130.462,198.8c0,0-8.915,11.074-6.129,20.517l0.712,1.453l4.742-13.094L130.462,198.8z"/>
	<path fill="#070706" d="M146.845,207.203c0,0,0.069-6.025-3.698-8.707c-3.767-2.681-8.568-3.949-11.621-3.661
		c-1.752,0.166-3.518,0.781-4.783,5.1c-1.268,4.32-1.798,23.902-1.798,23.902s8.64,4.025,14.981,4.579c0,0,2.615,0.791,5.96-0.944
		L146.845,207.203z"/>
	<path fill="#0F110D" d="M142.041,202.918c0,0-1.048,1.612-1.426,6.73c-0.377,5.115-0.958,13.524-0.958,13.524l4.349,1.702
		L142.041,202.918z"/>
	<path fill="#FCD3B7" d="M140.213,197.689c-5.232,2.037-6.808,0.65-6.808,0.65l-0.038-0.548l-0.258-4.248l3.125-0.302l2.519-0.247
		l0.182,0.593l0.207,0.663L140.213,197.689z"/>
	<path fill="#FCD3B7" d="M129.876,224.875l-4.74,0.506c0,0-1.318,0.335-1.815,1.482c-0.497,1.146,2.382,1.838,2.919,2.344
		c0.537,0.503,4.613-0.521,4.613-0.521L129.876,224.875z"/>
	<path fill="#FCD3B7" d="M130.035,224.875c0,0-1.875-1.804-2.241-1.804c-0.365,0-0.09,2.443,0.781,2.532L130.035,224.875z"/>
	<path fill="#383A34" d="M142.851,201.128c0,0-1.674,2.563-1.766,7.499c-0.092,4.933,0,13.595,0,13.595l-11.05,2.653
		c0,0,0.066,3.08,0.277,3.789l13.223,0.543c0,0,2.489-0.237,3.309-1.441c0.822-1.204,1.959-20.728-0.959-26.135
		C145.886,201.63,144.387,199.169,142.851,201.128z"/>
	<polygon fill="#EDA36F" points="139.658,193.673 139.141,194.25 137.047,196.605 133.367,197.791 133.108,193.543 136.234,193.241 
		138.934,193.587 	"/>
	<polygon fill="#FCD3B7" points="130.854,180.411 130.854,187.858 132.683,195.999 134.852,196.389 138.676,195.276 
		140.963,191.547 141.247,181.523 134.439,178.378 	"/>
	<path fill="#241404" d="M130.854,180.411l-1.931-1.39l-0.902-1.849c0,0,3.859-0.541,4.116-1.076
		c0.257-0.534,6.352-2.938,6.352-2.938l4.399,5.612l0.6,9.449l-2.523,3.328l-1.336,0.46v-3.232c0,0,0.644-0.551,1.064-1.484
		c0.419-0.933,0.213-3.529-0.765-3.256c-0.979,0.273-1.947-2.753-1.947-2.753l-4.597-1.216L130.854,180.411z"/>
	<path opacity="0.25" fill="#241033" d="M144.011,239.17c-0.702,0.903-2.164,2.461-3.733,4.731
		c-2.009,2.879-4.197,6.898-5.232,12.188l-7.407-4.27c0,0,0,0,0-0.012c0.333-5.041,1.023-10.844,2.402-12.639l-1.795-1.558
		c0,0-4.447,3.092-6.29,10.928l-4.173-2.414l2.057-13.377l0.915-0.119l12.354-1.569l12.508-0.321
		C145.616,230.739,145.914,236.708,144.011,239.17z"/>
	<g>
		<g>
			<polygon fill="#477FC2" points="425.8,163.559 440.559,154.866 426.502,137.321 422.807,143.36 			"/>
			<path fill="#477FC2" d="M318.622,67.269l23.557-13.553c0,0-0.884,13.525-0.884,13.553c0,0.028-13.534,4.191-13.534,4.191
				L318.622,67.269z"/>
			<path fill="#477FC2" d="M429.901,119.441c-1.793-1.035-3.505-1.64-5.097-1.89c-2.376-12.482-11.061-25.739-21.418-31.717
				c-3.113-1.799-6.077-2.76-8.765-2.967c-1.413-15.129-11.933-32.325-24.708-39.7c-6.675-3.853-12.729-4.309-17.195-1.949
				l0.002-0.011l-0.219,0.124c-0.113,0.064-0.227,0.128-0.34,0.195l-13.892,8.205l4.617,3.646c-4.143,1.81-6.764,6.457-6.764,13.326
				c0,12.668,8.895,28.071,19.867,34.404l73.91,52.78c8.238,4.756,14.915,0.901,14.915-8.611S438.14,124.197,429.901,119.441z"/>
			<path fill="#477FC2" d="M336.809,61.127l31.887-18.628c-6.191-3.228-11.784-3.495-15.977-1.28l0.002-0.011l-0.219,0.124
				c-0.113,0.064-0.227,0.128-0.34,0.195l-13.892,8.205l4.617,3.646C339.992,54.643,337.844,57.299,336.809,61.127z"/>
			<path fill="#477FC2" d="M395.691,115.928l23.261-13.651c-3.988-6.902-9.483-12.931-15.565-16.442
				c-0.805-0.466-1.6-0.872-2.381-1.226l-29.589,17.304L395.691,115.928z"/>
			<path fill="#CAE6FF" d="M344.825,51.256l10.368,5.985l18.987-11.182c-1.388-1.078-2.813-2.05-4.267-2.891
				c-2.3-1.327-4.521-2.242-6.635-2.787L344.825,51.256z"/>
			<path fill="#CAE6FF" d="M416.387,98.258l-18.565,10.941l6.458,7.203l16.854-9.953
				C419.801,103.595,418.198,100.835,416.387,98.258z"/>
			<path fill="#CAE6FF" d="M415.316,128.032c-1.793-1.036-3.503-1.64-5.097-1.889c-2.374-12.482-11.063-25.739-21.417-31.718
				c-3.116-1.797-6.077-2.759-8.764-2.966c-1.414-15.129-11.934-32.325-24.709-39.7c-13.737-7.932-24.875-1.502-24.875,14.361
				c0,0.539,0.013,1.081,0.039,1.627c-10.046-4.659-17.896,0.59-17.896,12.492c0,12.667,8.895,28.07,19.865,34.404l82.854,47.836
				c8.24,4.756,14.915,0.901,14.915-8.611C430.231,144.355,423.557,132.788,415.316,128.032z"/>
			<g>
				<path fill="#FFFFFF" d="M330.494,67.747c-0.026-0.546-0.039-1.088-0.039-1.627c0-0.021,0-0.044,0-0.066
					c-5.551-2.159-10.318-1.219-13.313,2.243C320.395,65.621,325.121,65.255,330.494,67.747z"/>
				<path fill="#FFFFFF" d="M416.531,126.851c-1.795-1.036-3.507-1.64-5.098-1.89c-2.376-12.483-11.061-25.739-21.418-31.719
					c-3.114-1.798-6.077-2.758-8.765-2.965c-1.413-15.13-11.933-32.325-24.708-39.7c-8.561-4.942-16.106-4.307-20.582,0.708
					c4.559-3.896,11.537-4.046,19.369,0.474c12.775,7.375,23.295,24.571,24.709,39.7c2.687,0.207,5.647,1.169,8.764,2.966
					c10.354,5.979,19.043,19.235,21.417,31.718c1.594,0.249,3.304,0.854,5.097,1.889c8.24,4.756,14.915,16.323,14.915,25.835
					c0,3.433-0.877,6.115-2.377,7.936c2.234-1.722,3.593-4.842,3.593-9.118C431.447,143.172,424.769,131.606,416.531,126.851z"/>
			</g>
			<g>
				<path fill="#2C5799" d="M328.743,71.525l6.228,2.888l-0.318-6.858c-0.021-0.481-0.033-0.958-0.033-1.435
					c0-6.122,1.848-10.559,5.203-12.497c3.355-1.935,8.124-1.318,13.425,1.743c11.402,6.583,21.35,22.607,22.645,36.481l0.328,3.495
					l3.499,0.269c2.152,0.166,4.507,0.98,7.002,2.42c9.057,5.229,17.219,17.378,19.408,28.89l0.548,2.882l2.899,0.454
					c1.153,0.182,2.385,0.646,3.659,1.382c6.956,4.016,12.833,14.195,12.833,22.227c0,3.006-0.833,5.213-2.287,6.051
					c-1.451,0.838-3.778,0.458-6.382-1.045l-82.856-47.836c-9.637-5.564-17.78-19.668-17.78-30.797c0-4.369,1.288-7.695,3.534-9.131
					c0.924-0.589,2.041-0.883,3.302-0.883C325.132,70.224,326.879,70.66,328.743,71.525z"/>
			</g>
		</g>
		<g>
			<polygon fill="#477FC2" points="370.096,123.453 372.279,122.355 370.128,120.725 			"/>
			<polygon fill="#477FC2" points="363.529,93.927 365.653,92.854 365.69,93.965 			"/>
			<polygon fill="#477FC2" points="376.331,116.551 378.544,115.438 374.282,111.384 			"/>
			<g>
				<path fill="#477FC2" d="M371.639,122.286l-10.347-6.095c-0.525-0.309-0.947-1.089-0.947-1.74l0.033-11.979l12.251,7.215
					l-0.035,11.979C372.594,122.317,372.166,122.595,371.639,122.286z"/>
				<path fill="#477FC2" d="M365.629,92.869l-11.177,7.19c-0.473,0.306-0.091,1.443,0.63,1.867l11.413,6.723l11.417,6.723
					c0.72,0.423,1.107-0.259,0.637-1.12L367.45,93.941C366.972,93.064,366.112,92.557,365.629,92.869z"/>
			</g>
			<g>
				<path fill="#CAE6FF" d="M369.422,123.403l-10.349-6.094c-0.524-0.309-0.949-1.088-0.947-1.74l0.033-11.98l12.25,7.215
					l-0.034,11.979C370.373,123.434,369.946,123.713,369.422,123.403z"/>
				<path fill="#CAE6FF" d="M363.41,93.985l-11.176,7.192c-0.476,0.304-0.094,1.442,0.627,1.867l11.417,6.722l11.415,6.723
					c0.719,0.424,1.106-0.258,0.638-1.121l-11.101-20.31C364.752,94.181,363.893,93.674,363.41,93.985z"/>
			</g>
		</g>
	</g>
	<g>
		<path opacity="0.5" fill="#BDCCD4" d="M91.012,266.304c2.603-1.504,6.86-1.504,9.464-0.001l10.108,5.835
			c2.603,1.502,2.603,3.961,0,5.464L80.93,294.723c-2.603,1.502-6.86,1.502-9.463,0l-10.109-5.834
			c-2.604-1.504-2.604-3.962-0.001-5.466L91.012,266.304z"/>
		<path fill="#FF3F48" d="M91.012,265.054c2.603-1.503,6.86-1.503,9.464,0l10.108,5.835c2.603,1.502,2.603,3.962,0,5.464
			L80.93,293.475c-2.603,1.502-6.86,1.502-9.463,0.001l-10.109-5.837c-2.604-1.502-2.604-3.96-0.001-5.462L91.012,265.054z"/>
		<path fill="#FFFFFF" d="M110.585,274.645L80.931,291.77c-2.605,1.502-6.862,1.502-9.464,0l-10.108-5.837
			c-2.606-1.503-2.606-3.961,0-5.464l0.798-0.46l28.855-16.66c2.602-1.502,6.858-1.507,9.465-0.005l8.365,4.831l1.743,1.005
			C113.187,270.682,113.187,273.142,110.585,274.645z"/>
		<polygon fill="#333333" points="90.955,264.449 63.022,280.581 80.627,290.663 108.571,274.527 		"/>
		<g>
			<g>
				<path fill="#333333" d="M104.435,269.484c-0.046,0-0.092-0.011-0.135-0.035l-3.89-2.246c-0.13-0.074-0.176-0.243-0.1-0.372
					c0.076-0.132,0.243-0.176,0.374-0.101l3.889,2.246c0.13,0.074,0.175,0.24,0.1,0.372
					C104.623,269.437,104.53,269.484,104.435,269.484z"/>
			</g>
			<ellipse fill="#333333" cx="99.059" cy="266.106" rx="0.787" ry="0.58"/>
		</g>
		<ellipse fill="#333333" cx="103.922" cy="266.687" rx="0.402" ry="0.295"/>
		<g>
			<path fill="#FF3F48" d="M67.689,287.849c-0.929,0-1.683-0.571-1.683-1.274s0.754-1.275,1.683-1.275
				c0.926,0,1.681,0.572,1.681,1.275S68.615,287.849,67.689,287.849z M67.689,285.571c-0.778,0-1.411,0.45-1.411,1.003
				c0,0.554,0.633,1.002,1.411,1.002c0.775,0,1.408-0.448,1.408-1.002C69.097,286.021,68.464,285.571,67.689,285.571z"/>
		</g>
		<path opacity="0.1" fill="#FFFFFF" d="M108.843,268.175l-43.167,13.926l-3.518-2.092l28.855-16.66
			c2.602-1.502,6.858-1.507,9.465-0.005L108.843,268.175z"/>
	</g>
</g>
<g id="DESIGNED_BY_FREEPIK">
	<g>
		<g id="XMLID_3_">
			<g id="XMLID_338_">
				<path id="XMLID_346_" fill="#F7FAFB" d="M203.604,433.335c-0.432,0.442-0.803,0.931-1.107,1.453l-0.466-0.241
					c-0.066-0.298-0.349-0.503-0.659-0.466c-0.33,0.038-0.567,0.338-0.528,0.669s0.339,0.568,0.67,0.529
					c0.065-0.008,0.127-0.026,0.184-0.053l0.451,0.234c-0.251,0.554-0.433,1.139-0.539,1.744l0.746,0.132
					c0.23-1.307,0.85-2.507,1.792-3.473L203.604,433.335z"/>
				<path id="XMLID_345_" fill="#F7FAFB" d="M209.092,431.032c-0.171,0-0.341,0.007-0.51,0.018l-0.073-0.626
					c0.188-0.149,0.296-0.39,0.266-0.645c-0.046-0.394-0.402-0.675-0.796-0.628c-0.393,0.046-0.674,0.402-0.628,0.795
					c0.03,0.254,0.189,0.461,0.405,0.563l0.073,0.625c-0.714,0.115-1.403,0.331-2.06,0.646l0.327,0.684
					c0.934-0.446,1.941-0.673,2.995-0.673c0.496,0,0.993,0.053,1.475,0.157l0.161-0.741
					C210.192,431.092,209.643,431.032,209.092,431.032z"/>
				<path id="XMLID_344_" fill="#F7FAFB" d="M215.694,433.58c0.331-0.041,0.566-0.342,0.525-0.673
					c-0.04-0.33-0.342-0.565-0.672-0.525c-0.31,0.038-0.536,0.304-0.53,0.609l-0.416,0.362c-0.418-0.43-0.89-0.813-1.408-1.139
					l-0.403,0.642c1.134,0.714,2.021,1.726,2.563,2.925l0.69-0.313c-0.251-0.555-0.567-1.072-0.942-1.545l0.402-0.352
					C215.564,433.585,215.629,433.588,215.694,433.58z"/>
				<path id="XMLID_343_" fill="#F7FAFB" d="M208.544,441.241c-0.386,0.023-0.774,0.034-1.157,0.034
					c-0.88,0-1.732-0.061-2.479-0.179c-0.39-0.062-0.846-0.155-1.27-0.292c1.046,1.861,3.069,3.125,5.388,3.125
					c2.855,0,5.263-1.916,5.95-4.504c-0.682,0.449-1.506,0.825-2.459,1.123C211.339,440.916,209.963,441.156,208.544,441.241z"/>
				<path id="XMLID_339_" fill="#F7FAFB" d="M209.092,432.549c-3.353,0-6.08,2.666-6.08,5.943c0,0.426,0.047,0.85,0.138,1.262
					c0.674,0.482,2.706,0.89,5.348,0.73c2.879-0.173,5.297-0.957,6.672-2.158c-0.006-0.195-0.021-0.39-0.045-0.582
					C214.743,434.782,212.15,432.549,209.092,432.549z M206.933,439.063c-1.021,0-1.85-0.829-1.85-1.85c0-1.02,0.829-1.85,1.85-1.85
					c1.02,0,1.85,0.83,1.85,1.85C208.782,438.234,207.952,439.063,206.933,439.063z M211.67,438.155c-0.75,0-1.36-0.61-1.36-1.36
					s0.61-1.36,1.36-1.36s1.36,0.61,1.36,1.36S212.42,438.155,211.67,438.155z"/>
			</g>
			<path id="XMLID_336_" fill="#F7FAFB" d="M225.095,434.416c-0.294-0.116-0.805-0.309-1.382-0.237
				c-0.551,0.068-0.844,0.341-0.844,1.007v0.865h2.228v1.718h-2.228v5.455h-1.932v-5.455h-1.34v-1.718h1.34v-0.888
				c0-1.68,0.896-2.783,2.568-2.783c0.643,0,1.157,0.122,1.59,0.309L225.095,434.416z"/>
			<path id="XMLID_334_" fill="#F7FAFB" d="M229.798,437.748c-0.177-0.03-0.357-0.046-0.526-0.046c-0.896,0-1.51,0.547-1.51,1.613
				v3.908h-1.932v-7.173h1.872v0.785c0.452-0.674,1.141-0.978,2.021-0.978c0.414,0,0.848,0.128,1.094,0.337L229.798,437.748z"/>
			<path id="XMLID_20_" fill="#F7FAFB" d="M237.465,439.626c0,0.223-0.015,0.488-0.037,0.651h-5.084
				c0.207,1.036,0.933,1.487,1.843,1.487c0.621,0,1.295-0.251,1.813-0.688l1.133,1.243c-0.814,0.747-1.851,1.088-3.057,1.088
				c-2.198,0-3.723-1.495-3.723-3.752c0-2.258,1.48-3.798,3.626-3.798C236.044,435.858,237.458,437.391,237.465,439.626z
				 M232.351,438.96h3.175c-0.177-0.918-0.732-1.436-1.562-1.436C233.054,437.524,232.521,438.072,232.351,438.96z"/>
			<path id="XMLID_17_" fill="#F7FAFB" d="M245.118,439.626c0,0.223-0.015,0.488-0.037,0.651h-5.085
				c0.208,1.036,0.933,1.487,1.844,1.487c0.621,0,1.295-0.251,1.813-0.688l1.132,1.243c-0.814,0.747-1.851,1.088-3.057,1.088
				c-2.198,0-3.723-1.495-3.723-3.752c0-2.258,1.48-3.798,3.626-3.798C243.697,435.858,245.111,437.391,245.118,439.626z
				 M240.004,438.96h3.176c-0.178-0.918-0.733-1.436-1.563-1.436C240.707,437.524,240.174,438.072,240.004,438.96z"/>
			<path id="XMLID_14_" fill="#F7FAFB" d="M253.464,439.634c0,2.153-1.495,3.774-3.471,3.774c-0.963,0-1.644-0.377-2.109-0.933
				v3.708h-1.925v-10.133h1.888v0.792c0.466-0.584,1.154-0.984,2.139-0.984C251.969,435.858,253.464,437.479,253.464,439.634z
				 M247.787,439.634c0,1.132,0.747,1.976,1.843,1.976c1.14,0,1.851-0.881,1.851-1.976c0-1.096-0.711-1.977-1.851-1.977
				C248.534,437.657,247.787,438.501,247.787,439.634z"/>
			<path id="XMLID_11_" fill="#F7FAFB" d="M256.567,433.705c0,0.695-0.54,1.229-1.236,1.229c-0.695,0-1.229-0.533-1.229-1.229
				s0.533-1.243,1.229-1.243C256.027,432.462,256.567,433.01,256.567,433.705z M256.309,443.224h-1.932v-7.173h1.932V443.224z"/>
			<path id="XMLID_5_" fill="#F7FAFB" d="M259.532,438.604l2.701-2.554h2.369l-3.479,3.376l3.501,3.797h-2.376l-2.716-2.901v2.901
				h-1.932v-10.658h1.932V438.604z"/>
		</g>
		<g>
			<path fill="#F7FAFB" d="M127.913,443.158v-1.055c-0.527,0.718-1.392,1.23-2.388,1.23c-1.846,0-3.149-1.406-3.149-3.706
				c0-2.256,1.289-3.721,3.149-3.721c0.952,0,1.816,0.469,2.388,1.245v-3.765h1.099v9.771H127.913z M127.913,441.239v-3.208
				c-0.396-0.615-1.245-1.143-2.124-1.143c-1.421,0-2.271,1.172-2.271,2.739s0.85,2.725,2.271,2.725
				C126.667,442.353,127.517,441.854,127.913,441.239z"/>
			<path fill="#F7FAFB" d="M130.432,439.613c0-2.051,1.464-3.706,3.486-3.706c2.139,0,3.398,1.67,3.398,3.794v0.278h-5.728
				c0.088,1.333,1.025,2.446,2.549,2.446c0.806,0,1.626-0.322,2.183-0.894l0.527,0.718c-0.703,0.703-1.655,1.084-2.813,1.084
				C131.94,443.334,130.432,441.825,130.432,439.613z M133.903,436.815c-1.509,0-2.256,1.274-2.314,2.358h4.644
				C136.218,438.119,135.515,436.815,133.903,436.815z"/>
			<path fill="#F7FAFB" d="M138.107,442.221l0.571-0.791c0.469,0.542,1.362,1.011,2.329,1.011c1.084,0,1.67-0.513,1.67-1.216
				c0-1.714-4.38-0.659-4.38-3.281c0-1.099,0.952-2.036,2.637-2.036c1.201,0,2.051,0.454,2.622,1.025l-0.513,0.762
				c-0.424-0.513-1.201-0.894-2.109-0.894c-0.967,0-1.567,0.483-1.567,1.113c0,1.553,4.379,0.527,4.379,3.281
				c0,1.187-0.952,2.139-2.783,2.139C139.806,443.334,138.825,442.982,138.107,442.221z"/>
			<path fill="#F7FAFB" d="M144.977,434.34c0-0.41,0.337-0.746,0.732-0.746c0.41,0,0.747,0.336,0.747,0.746
				s-0.336,0.732-0.747,0.732C145.314,435.072,144.977,434.75,144.977,434.34z M145.167,443.158v-7.075h1.099v7.075H145.167z"/>
			<path fill="#F7FAFB" d="M148.082,444.975l0.557-0.82c0.586,0.703,1.289,0.967,2.3,0.967c1.172,0,2.27-0.571,2.27-2.124v-1.011
				c-0.512,0.718-1.376,1.26-2.373,1.26c-1.845,0-3.149-1.377-3.149-3.662c0-2.271,1.289-3.677,3.149-3.677
				c0.952,0,1.802,0.469,2.373,1.245v-1.069h1.099v6.87c0,2.344-1.641,3.076-3.369,3.076
				C149.737,446.029,148.917,445.795,148.082,444.975z M153.208,441.122v-3.091c-0.381-0.615-1.23-1.143-2.109-1.143
				c-1.421,0-2.271,1.128-2.271,2.695c0,1.553,0.849,2.695,2.271,2.695C151.978,442.279,152.828,441.737,153.208,441.122z"/>
			<path fill="#F7FAFB" d="M160.913,443.158v-4.629c0-1.245-0.629-1.641-1.582-1.641c-0.865,0-1.685,0.527-2.095,1.1v5.17h-1.099
				v-7.075h1.099v1.025c0.498-0.585,1.464-1.201,2.519-1.201c1.479,0,2.256,0.747,2.256,2.285v4.966H160.913z"/>
			<path fill="#F7FAFB" d="M163.433,439.613c0-2.051,1.465-3.706,3.486-3.706c2.138,0,3.398,1.67,3.398,3.794v0.278h-5.728
				c0.088,1.333,1.025,2.446,2.549,2.446c0.806,0,1.625-0.322,2.183-0.894l0.527,0.718c-0.703,0.703-1.655,1.084-2.813,1.084
				C164.941,443.334,163.433,441.825,163.433,439.613z M166.904,436.815c-1.509,0-2.256,1.274-2.314,2.358h4.643
				C169.218,438.119,168.515,436.815,166.904,436.815z"/>
			<path fill="#F7FAFB" d="M176.85,443.158v-1.055c-0.527,0.718-1.392,1.23-2.388,1.23c-1.845,0-3.149-1.406-3.149-3.706
				c0-2.256,1.289-3.721,3.149-3.721c0.952,0,1.817,0.469,2.388,1.245v-3.765h1.099v9.771H176.85z M176.85,441.239v-3.208
				c-0.396-0.615-1.245-1.143-2.124-1.143c-1.421,0-2.271,1.172-2.271,2.739s0.85,2.725,2.271,2.725
				C175.605,442.353,176.454,441.854,176.85,441.239z"/>
			<path fill="#F7FAFB" d="M183.192,443.158v-9.771h1.099v3.765c0.572-0.776,1.421-1.245,2.388-1.245
				c1.846,0,3.149,1.465,3.149,3.721c0,2.3-1.304,3.706-3.149,3.706c-0.996,0-1.86-0.513-2.388-1.23v1.055H183.192z M186.4,442.353
				c1.436,0,2.285-1.157,2.285-2.725s-0.85-2.739-2.285-2.739c-0.864,0-1.729,0.527-2.109,1.143v3.208
				C184.671,441.854,185.536,442.353,186.4,442.353z"/>
			<path fill="#F7FAFB" d="M191.028,444.931c0.161,0.073,0.425,0.117,0.601,0.117c0.483,0,0.805-0.161,1.055-0.747l0.468-1.069
				l-2.959-7.148h1.187l2.358,5.801l2.344-5.801h1.201l-3.545,8.511c-0.425,1.025-1.143,1.421-2.08,1.436
				c-0.234,0-0.601-0.044-0.805-0.103L191.028,444.931z"/>
		</g>
	</g>
</g>
</svg>
