<?xml version="1.0" encoding="utf-8"?>
<!-- Generator: Adobe Illustrator 16.0.0, SVG Export Plug-In . SVG Version: 6.00 Build 0)  -->
<!DOCTYPE svg PUBLIC "-//W3C//DTD SVG 1.1//EN" "http://www.w3.org/Graphics/SVG/1.1/DTD/svg11.dtd">
<svg version="1.1" id="Ñëîé_1" xmlns="http://www.w3.org/2000/svg" xmlns:xlink="http://www.w3.org/1999/xlink" x="0px" y="0px"
	 width="289.405px" height="365.254px" viewBox="0 0 289.405 365.254" enable-background="new 0 0 289.405 365.254"
	 xml:space="preserve">
<path display="none" fill="#D4ECFF" d="M341.848,282.675l-66.153,41.021c-7.378,4.557-9.665,14.231-5.108,21.609l22.213,35.966
	h49.049V282.675z"/>
<g>
	<path fill="#B2D3EA" d="M260.486,239.173c-0.784,0-1.567-0.209-2.265-0.627l-13.58-8.142l0.822-1.371l13.58,8.142
		c0.878,0.528,1.976,0.533,2.857,0.016l22.103-12.927c0.354-0.206,0.56-0.572,0.552-0.98c-0.007-0.407-0.227-0.765-0.585-0.958
		l-29.457-15.773l0.754-1.41l29.457,15.774c0.877,0.47,1.411,1.345,1.43,2.339c0.018,0.995-0.485,1.888-1.345,2.389l-22.101,12.926
		C262.022,238.972,261.254,239.173,260.486,239.173z"/>
	<path fill="#B2D3EA" d="M205.559,361.472c-0.959,0-1.917-0.239-2.78-0.719l-54.195-30.169c-0.799-0.444-1.277-1.256-1.281-2.169
		c-0.003-0.916,0.471-1.73,1.267-2.181l24.527-13.832c0.388-0.22,0.431-0.589,0.431-0.737c0.001-0.149-0.04-0.52-0.426-0.742
		l-27.288-15.668c-0.75-0.432-1.209-1.207-1.228-2.072s0.407-1.658,1.139-2.122l11.147-7.063l0.855,1.35l-11.147,7.064
		c-0.366,0.232-0.398,0.594-0.396,0.737c0.003,0.145,0.051,0.503,0.426,0.72l27.288,15.669c0.772,0.445,1.231,1.242,1.228,2.133
		c-0.003,0.892-0.468,1.686-1.243,2.124l-24.527,13.832c-0.411,0.232-0.454,0.625-0.454,0.782c0.001,0.158,0.047,0.549,0.46,0.779
		l54.195,30.168c1.289,0.718,2.875,0.688,4.14-0.076l20.607-12.669c0.163-0.1,0.188-0.253,0.188-0.335
		c-0.001-0.066-0.02-0.231-0.188-0.335l-14.915-9.066l0.83-1.365l14.915,9.066c0.598,0.363,0.955,0.998,0.956,1.696
		c0.002,0.698-0.353,1.334-0.947,1.7l-20.612,12.672C207.618,361.196,206.588,361.472,205.559,361.472z"/>
	<g>
		<path fill="#B2D3EA" d="M228.966,239.996l-26.129-15.085c-1.604-0.926-1.402-2.543,0.449-3.612l25.229-14.566
			c1.852-1.068,4.652-1.185,6.256-0.259l26.129,15.085c1.604,0.926,1.402,2.543-0.449,3.612l-25.229,14.566
			C233.37,240.806,230.569,240.921,228.966,239.996z"/>
		<g>
			<path fill="#396CAA" d="M269.568,210.068L269.568,210.068v-11.289l-25.314-0.014l-8.75-5.052
				c-2.008-1.159-5.516-1.015-7.834,0.324l-8.164,4.714l-25.337-0.015v11.61c-0.057,0.785,0.381,1.542,1.346,2.1l32.719,18.89
				c2.008,1.159,5.516,1.015,7.834-0.325l31.593-18.239C268.998,212,269.643,211,269.568,210.068z"/>
			<path fill="#396CAA" d="M231.869,192.937c-1.47,0.035-2.995,0.405-4.199,1.101l-8.164,4.714l-25.337-0.015v11.61
				c-0.057,0.785,0.381,1.542,1.346,2.1l32.719,18.89c0.965,0.558,2.276,0.81,3.636,0.776V192.937z"/>
			<path fill="#5793CE" d="M197.037,198.739l-2.868-0.002v11.61c-0.057,0.785,0.381,1.542,1.346,2.1l1.522,0.879V198.739z"/>
			<path fill="#5793CE" d="M228.737,231.583c1.732,0.742,4.237,0.701,6.263-0.071V218.33h-6.263V231.583z"/>
			<path fill="#D4ECFF" d="M228.233,219.768l-32.719-18.89c-2.008-1.16-1.757-3.186,0.563-4.523l31.593-18.24
				c2.318-1.339,5.826-1.484,7.834-0.325l32.719,18.89c2.008,1.159,1.756,3.185-0.563,4.523l-31.593,18.239
				C233.749,220.782,230.241,220.927,228.233,219.768z"/>
			<path fill="#5793CE" d="M228.822,216.368l-27.419-15.83c-1.683-0.972-1.472-2.668,0.472-3.79l26.475-15.285
				c1.943-1.122,4.883-1.244,6.565-0.272l27.419,15.83c1.683,0.972,1.472,2.669-0.472,3.79l-26.475,15.286
				C233.444,217.218,230.505,217.339,228.822,216.368z"/>
			<g>
				<path fill="#D4ECFF" d="M257.533,213.047c0,0.843-0.591,1.868-1.321,2.289c-0.729,0.421-1.321,0.08-1.321-0.763
					s0.592-1.867,1.321-2.289C256.942,211.863,257.533,212.205,257.533,213.047z"/>
				<path fill="#D4ECFF" d="M261.785,210.593c0,0.842-0.592,1.867-1.321,2.288c-0.729,0.422-1.321,0.08-1.321-0.763
					s0.592-1.867,1.321-2.289C261.193,209.409,261.785,209.75,261.785,210.593z"/>
				<path fill="#D4ECFF" d="M266.037,208.138c0,0.843-0.592,1.867-1.321,2.289c-0.729,0.421-1.321,0.079-1.321-0.764
					s0.592-1.867,1.321-2.289C265.445,206.954,266.037,207.295,266.037,208.138z"/>
			</g>
		</g>
		<g>
			<path fill="#396CAA" d="M269.568,192.027L269.568,192.027v-11.289l-25.314-0.014l-8.75-5.052
				c-2.008-1.159-5.516-1.014-7.834,0.324l-8.164,4.714l-25.337-0.015v11.61c-0.057,0.785,0.381,1.542,1.346,2.1l32.719,18.89
				c2.008,1.159,5.516,1.015,7.834-0.325l31.593-18.239C268.998,193.958,269.643,192.958,269.568,192.027z"/>
			<path fill="#396CAA" d="M231.869,174.896c-1.47,0.036-2.995,0.406-4.199,1.101l-8.164,4.714l-25.337-0.015v11.61
				c-0.057,0.785,0.381,1.542,1.346,2.1l32.719,18.89c0.965,0.558,2.276,0.81,3.636,0.776V174.896z"/>
			<path fill="#5793CE" d="M197.037,180.698l-2.868-0.002v11.61c-0.057,0.785,0.381,1.542,1.346,2.1l1.522,0.879V180.698z"/>
			<path fill="#5793CE" d="M228.737,213.542c1.732,0.742,4.237,0.701,6.263-0.071v-13.183h-6.263V213.542z"/>
			<path fill="#D4ECFF" d="M228.233,201.727l-32.719-18.89c-2.008-1.16-1.757-3.185,0.563-4.523l31.593-18.24
				c2.318-1.339,5.826-1.484,7.834-0.325l32.719,18.89c2.008,1.159,1.756,3.185-0.563,4.523l-31.593,18.239
				C233.749,202.741,230.241,202.886,228.233,201.727z"/>
			<path fill="#5793CE" d="M228.822,198.328l-27.419-15.831c-1.683-0.971-1.472-2.668,0.472-3.79l26.475-15.285
				c1.943-1.122,4.883-1.244,6.565-0.272l27.419,15.83c1.683,0.972,1.472,2.669-0.472,3.79l-26.475,15.286
				C233.444,199.177,230.505,199.298,228.822,198.328z"/>
			<g>
				<path fill="#D4ECFF" d="M257.533,195.006c0,0.843-0.591,1.868-1.321,2.289c-0.729,0.421-1.321,0.08-1.321-0.763
					s0.592-1.867,1.321-2.289C256.942,193.822,257.533,194.164,257.533,195.006z"/>
				<path fill="#D4ECFF" d="M261.785,192.552c0,0.842-0.592,1.867-1.321,2.288c-0.729,0.422-1.321,0.08-1.321-0.763
					s0.592-1.867,1.321-2.289C261.193,191.368,261.785,191.708,261.785,192.552z"/>
				<path fill="#D4ECFF" d="M266.037,190.097c0,0.843-0.592,1.867-1.321,2.289c-0.729,0.421-1.321,0.079-1.321-0.764
					s0.592-1.867,1.321-2.289C265.445,188.913,266.037,189.254,266.037,190.097z"/>
			</g>
		</g>
		<g>
			<path fill="#396CAA" d="M269.568,173.986L269.568,173.986v-11.29l-25.314-0.014l-8.75-5.052
				c-2.008-1.159-5.516-1.014-7.834,0.325l-8.164,4.713l-25.337-0.015v11.611c-0.057,0.785,0.381,1.542,1.346,2.099l32.719,18.89
				c2.008,1.159,5.516,1.015,7.834-0.324l31.593-18.24C268.998,175.918,269.643,174.917,269.568,173.986z"/>
			<path fill="#396CAA" d="M231.869,156.854c-1.47,0.036-2.995,0.406-4.199,1.102l-8.164,4.713l-25.337-0.015v11.611
				c-0.057,0.785,0.381,1.542,1.346,2.099l32.719,18.89c0.965,0.558,2.276,0.81,3.636,0.776V156.854z"/>
			<path fill="#5793CE" d="M197.037,162.657l-2.868-0.002v11.611c-0.057,0.785,0.381,1.542,1.346,2.099l1.522,0.879V162.657z"/>
			<path fill="#5793CE" d="M228.737,195.501c1.732,0.742,4.237,0.701,6.263-0.071v-13.183h-6.263V195.501z"/>
			<path fill="#D4ECFF" d="M228.233,183.686l-32.719-18.89c-2.008-1.159-1.757-3.184,0.563-4.523l31.593-18.24
				c2.318-1.339,5.826-1.484,7.834-0.325l32.719,18.89c2.008,1.159,1.756,3.185-0.563,4.523l-31.593,18.239
				C233.749,184.701,230.241,184.845,228.233,183.686z"/>
			<path fill="#FFFFFF" d="M267.66,162.9l-31.593,18.24c-2.318,1.338-5.826,1.484-7.834,0.324l-32.719-18.89
				c-0.448-0.258-0.776-0.561-1.002-0.889c-0.69,1.11-0.377,2.315,1.002,3.111l32.719,18.89c2.008,1.159,5.516,1.014,7.834-0.325
				l31.593-18.239c1.802-1.04,2.35-2.494,1.564-3.634C268.91,161.994,268.387,162.48,267.66,162.9z"/>
			<g>
				<path fill="#D4ECFF" d="M257.533,176.965c0,0.843-0.591,1.868-1.321,2.289c-0.729,0.422-1.321,0.08-1.321-0.763
					s0.592-1.868,1.321-2.289C256.942,175.781,257.533,176.123,257.533,176.965z"/>
				<path fill="#D4ECFF" d="M261.785,174.511c0,0.843-0.592,1.868-1.321,2.289s-1.321,0.08-1.321-0.763s0.592-1.867,1.321-2.289
					C261.193,173.327,261.785,173.668,261.785,174.511z"/>
				<path fill="#D4ECFF" d="M266.037,172.056c0,0.843-0.592,1.867-1.321,2.289s-1.321,0.08-1.321-0.763s0.592-1.868,1.321-2.289
					S266.037,171.213,266.037,172.056z"/>
			</g>
			<g>
				<path fill="#5793CE" d="M230.168,171.975l-15.311-8.839c-0.939-0.543-0.822-1.49,0.263-2.117l14.784-8.535
					c1.085-0.626,2.727-0.694,3.666-0.152l15.311,8.84c0.939,0.543,0.822,1.49-0.263,2.117l-14.784,8.536
					C232.749,172.449,231.107,172.517,230.168,171.975z"/>
				<path fill="#D4ECFF" d="M231.634,164.573l-2.118-1.223c-0.13-0.075-0.114-0.206,0.036-0.293l2.046-1.181
					c0.149-0.087,0.377-0.096,0.507-0.021l2.118,1.224c0.13,0.075,0.114,0.206-0.036,0.293l-2.046,1.181
					C231.991,164.639,231.764,164.648,231.634,164.573z"/>
				<path fill="#396CAA" d="M214.857,163.135l0.043,0.024c0.071-0.051,0.138-0.104,0.22-0.151l14.784-8.535
					c1.085-0.626,2.727-0.694,3.666-0.152l15.268,8.815c0.866-0.62,0.911-1.464,0.043-1.966l-15.311-8.84
					c-0.939-0.542-2.581-0.475-3.666,0.152l-14.784,8.535C214.035,161.645,213.918,162.592,214.857,163.135z"/>
			</g>
		</g>
	</g>
	<g>
		<g>
			<g>
				<path fill="#B2D3EA" d="M170.11,294.127l-56.472-32.2c-2.065-1.193-1.807-3.275,0.578-4.652l32.492-18.76
					c2.385-1.377,5.992-1.526,8.058-0.334l56.472,32.201c2.065,1.191,1.807,3.275-0.578,4.651l-32.492,18.76
					C175.783,295.17,172.176,295.32,170.11,294.127z"/>
				<path fill="#396CAA" d="M216.273,259.542L216.273,259.542V127.707l-52.411-13.718l-9.653-5.573
					c-2.216-1.279-6.086-1.119-8.645,0.358l-9.007,5.2l-27.954-0.016l8.277,127.269c-0.063,0.866,0.42,1.701,1.484,2.315
					l52.303,39.466c2.216,1.278,6.086,1.118,8.644-0.358l34.857-20.125C215.645,261.673,216.356,260.57,216.273,259.542z"/>
				<path fill="#D4ECFF" d="M150.198,107.558c-1.622,0.04-3.305,0.448-4.634,1.216l-9.007,5.2l-27.954-0.016v132.19
					c-0.063,0.865,0.42,1.701,1.484,2.315l60.58,34.544c1.064,0.614,2.513,0.894,4.012,0.856l0.625-133.016L150.198,107.558z"/>
				<path fill="#5793CE" d="M171.225,283.281c1.911,0.818,4.675,0.772,6.909-0.079V149.276h-6.909V283.281z"/>
				<path fill="#D4ECFF" d="M170.668,150.864l-60.58-34.543c-2.216-1.279-1.938-3.513,0.62-4.991l34.856-20.124
					c2.559-1.477,6.429-1.638,8.645-0.358l60.58,34.543c2.216,1.279,1.938,3.514-0.62,4.991l-34.857,20.124
					C176.754,151.983,172.884,152.143,170.668,150.864z"/>
				<path fill="#FAFDFF" d="M214.169,127.93l-34.857,20.124c-2.558,1.478-6.428,1.638-8.644,0.358l-60.58-34.543
					c-0.494-0.285-0.857-0.62-1.105-0.981c-0.762,1.225-0.416,2.554,1.105,3.432l60.58,34.543c2.216,1.279,6.086,1.119,8.644-0.358
					l34.857-20.124c1.987-1.147,2.592-2.751,1.726-4.01C215.547,126.93,214.97,127.467,214.169,127.93z"/>
				<g>
					<path fill="#173D7A" d="M172.382,136.864l-40.333-23.38c-1.037-0.599-0.907-1.644,0.29-2.335l16.312-9.417
						c1.197-0.691,3.008-0.766,4.045-0.167l40.333,23.38c1.037,0.599,0.906,1.644-0.29,2.335l-16.312,9.417
						C175.229,137.387,173.419,137.462,172.382,136.864z"/>
					<g>
						<path fill="#D4ECFF" d="M150.607,114.534l-2.337-1.349c-0.144-0.083-0.126-0.228,0.04-0.323l2.257-1.303
							c0.165-0.096,0.416-0.106,0.56-0.023l2.337,1.35c0.144,0.083,0.125,0.227-0.04,0.323l-2.257,1.303
							C151.001,114.606,150.751,114.617,150.607,114.534z"/>
						<path fill="#D4ECFF" d="M158.415,119.024l-2.337-1.35c-0.144-0.083-0.125-0.228,0.04-0.323l2.257-1.303
							c0.166-0.096,0.416-0.106,0.56-0.023l2.338,1.35c0.143,0.083,0.125,0.228-0.041,0.323L158.975,119
							C158.81,119.096,158.559,119.107,158.415,119.024z"/>
						<path fill="#D4ECFF" d="M166.224,123.513l-2.337-1.349c-0.144-0.083-0.126-0.228,0.04-0.323l2.257-1.303
							c0.165-0.096,0.416-0.106,0.56-0.023l2.337,1.349c0.144,0.083,0.125,0.228-0.04,0.323l-2.257,1.303
							C166.617,123.586,166.367,123.596,166.224,123.513z"/>
						<path fill="#D4ECFF" d="M174.031,128.003l-2.337-1.35c-0.144-0.083-0.125-0.228,0.04-0.323l2.257-1.303
							c0.166-0.096,0.416-0.106,0.56-0.023l2.338,1.35c0.143,0.083,0.125,0.228-0.041,0.323l-2.257,1.303
							C174.426,128.076,174.175,128.086,174.031,128.003z"/>
					</g>
					<path fill="#5793CE" d="M132.049,113.484l0.048,0.028c0.078-0.056,0.151-0.115,0.242-0.167l16.312-9.417
						c1.197-0.691,3.008-0.766,4.045-0.167l40.285,23.352c0.956-0.684,1.006-1.616,0.048-2.168l-40.333-23.38
						c-1.037-0.599-2.848-0.523-4.045,0.167l-16.312,9.417C131.142,111.84,131.012,112.885,132.049,113.484z"/>
				</g>
			</g>
			<g>
				<path fill="#173D7A" d="M186.118,176.984l22.932-13.13c1.291-0.745,2.337-2.744,2.337-4.465v-8.2
					c0-1.721-1.046-2.512-2.337-1.767l-22.932,13.13c-1.291,0.745-2.337,2.744-2.337,4.464v8.201
					C183.781,176.938,184.827,177.729,186.118,176.984z"/>
				<path fill="#FFFFFF" d="M210.186,149.175c0.36,0.34,0.586,0.919,0.586,1.707v8.201c0,1.72-1.046,3.719-2.337,4.464
					l-22.932,13.13c-0.414,0.239-0.798,0.305-1.135,0.247c0.428,0.404,1.049,0.465,1.75,0.061l22.932-13.13
					c1.291-0.745,2.337-2.744,2.337-4.465v-8.2C211.387,150.02,210.898,149.296,210.186,149.175z"/>
				<g>
					<path fill="#396CAA" d="M193.015,168.075l2.104-1.214c0.281-0.163,0.509-0.599,0.509-0.974v-2.247
						c0-0.375-0.228-0.547-0.509-0.385l-2.104,1.215c-0.28,0.162-0.509,0.598-0.509,0.973v2.247
						C192.506,168.065,192.734,168.238,193.015,168.075z"/>
					<path fill="#FFFFFF" d="M200.049,164.014l2.104-1.215c0.281-0.162,0.51-0.598,0.51-0.973v-2.247
						c0-0.375-0.229-0.548-0.51-0.385l-2.104,1.214c-0.281,0.163-0.509,0.599-0.509,0.974v2.247
						C199.54,164.004,199.768,164.176,200.049,164.014z"/>
				</g>
			</g>
			<g>
				<path fill="#173D7A" d="M186.118,236.244l22.932-13.13c1.291-0.745,2.337-2.743,2.337-4.464v-8.201
					c0-1.721-1.046-2.512-2.337-1.767l-22.932,13.13c-1.291,0.745-2.337,2.744-2.337,4.465v8.201
					C183.781,236.199,184.827,236.989,186.118,236.244z"/>
				<path fill="#FFFFFF" d="M210.186,208.435c0.36,0.34,0.586,0.92,0.586,1.706v8.201c0,1.721-1.046,3.72-2.337,4.464
					l-22.932,13.131c-0.414,0.238-0.798,0.304-1.135,0.246c0.428,0.404,1.049,0.465,1.75,0.061l22.932-13.13
					c1.291-0.745,2.337-2.743,2.337-4.464v-8.201C211.387,209.281,210.898,208.556,210.186,208.435z"/>
				<g>
					<path fill="#396CAA" d="M193.015,227.335l2.104-1.215c0.281-0.162,0.509-0.598,0.509-0.973v-2.247
						c0-0.375-0.228-0.548-0.509-0.385l-2.104,1.214c-0.28,0.162-0.509,0.599-0.509,0.974v2.247
						C192.506,227.326,192.734,227.498,193.015,227.335z"/>
					<path fill="#396CAA" d="M200.049,223.275l2.104-1.215c0.281-0.163,0.51-0.598,0.51-0.974v-2.247
						c0-0.375-0.229-0.547-0.51-0.385l-2.104,1.215c-0.281,0.162-0.509,0.598-0.509,0.973v2.247
						C199.54,223.264,199.768,223.437,200.049,223.275z"/>
				</g>
			</g>
			<g>
				<path fill="#173D7A" d="M186.118,265.875l22.932-13.131c1.291-0.744,2.337-2.743,2.337-4.464v-8.201
					c0-1.721-1.046-2.511-2.337-1.767l-22.932,13.131c-1.291,0.744-2.337,2.743-2.337,4.464v8.201
					C183.781,265.828,184.827,266.619,186.118,265.875z"/>
				<path fill="#FFFFFF" d="M210.186,238.065c0.36,0.341,0.586,0.92,0.586,1.706v8.201c0,1.721-1.046,3.72-2.337,4.465
					l-22.932,13.129c-0.414,0.24-0.798,0.305-1.135,0.248c0.428,0.403,1.049,0.465,1.75,0.061l22.932-13.131
					c1.291-0.744,2.337-2.743,2.337-4.464v-8.201C211.387,238.911,210.898,238.187,210.186,238.065z"/>
				<g>
					<path fill="#FFFFFF" d="M193.015,256.965l2.104-1.214c0.281-0.163,0.509-0.599,0.509-0.974v-2.247
						c0-0.375-0.228-0.547-0.509-0.385l-2.104,1.215c-0.28,0.162-0.509,0.598-0.509,0.973v2.247
						C192.506,256.956,192.734,257.128,193.015,256.965z"/>
					<path fill="#396CAA" d="M200.049,252.905l2.104-1.215c0.281-0.163,0.51-0.599,0.51-0.974v-2.246
						c0-0.375-0.229-0.548-0.51-0.385l-2.104,1.214c-0.281,0.162-0.509,0.598-0.509,0.974v2.246
						C199.54,252.894,199.768,253.067,200.049,252.905z"/>
				</g>
			</g>
			<g>
				<path fill="#173D7A" d="M186.118,206.614l22.932-13.13c1.291-0.745,2.337-2.744,2.337-4.465v-8.2
					c0-1.721-1.046-2.512-2.337-1.767l-22.932,13.13c-1.291,0.745-2.337,2.744-2.337,4.465v8.2
					C183.781,206.568,184.827,207.359,186.118,206.614z"/>
				<path fill="#FFFFFF" d="M210.186,178.805c0.36,0.34,0.586,0.919,0.586,1.706v8.201c0,1.721-1.046,3.719-2.337,4.464
					l-22.932,13.13c-0.414,0.239-0.798,0.305-1.135,0.247c0.428,0.404,1.049,0.465,1.75,0.061l22.932-13.13
					c1.291-0.745,2.337-2.744,2.337-4.465v-8.2C211.387,179.65,210.898,178.926,210.186,178.805z"/>
				<g>
					<path fill="#FFFFFF" d="M193.015,197.706l2.104-1.215c0.281-0.162,0.509-0.599,0.509-0.974v-2.246
						c0-0.375-0.228-0.548-0.509-0.385l-2.104,1.214c-0.28,0.162-0.509,0.599-0.509,0.974v2.246
						C192.506,197.695,192.734,197.868,193.015,197.706z"/>
					<path fill="#FFFFFF" d="M200.049,193.644l2.104-1.215c0.281-0.162,0.51-0.598,0.51-0.973v-2.247
						c0-0.375-0.229-0.548-0.51-0.385l-2.104,1.214c-0.281,0.163-0.509,0.599-0.509,0.974v2.247
						C199.54,193.634,199.768,193.806,200.049,193.644z"/>
				</g>
			</g>
		</g>
		<g>
			<path fill="#5793CE" d="M166.256,168.589l-52.907-30.545c-1.184-0.684-2.144-2.518-2.144-4.097v-10.089
				c0-1.579,0.96-2.305,2.144-1.621l52.907,30.546c1.184,0.684,2.144,2.518,2.144,4.097v10.089
				C168.399,168.547,167.439,169.272,166.256,168.589z"/>
			<path opacity="0.4" fill="#D4ECFF" d="M164.736,165.051l-49.868-28.792c-0.602-0.347-1.089-1.277-1.089-2.078v-7.584
				c0-0.801,0.487-1.17,1.089-0.823l49.868,28.792c0.602,0.347,1.088,1.277,1.088,2.079v7.584
				C165.824,165.03,165.338,165.398,164.736,165.051z"/>
			<path fill="#D4ECFF" d="M125.261,138.426l-7.442-4.297c-0.584-0.337-1.057-1.241-1.057-2.018l0,0
				c0-0.778,0.473-1.136,1.057-0.799l7.442,4.297c0.583,0.337,1.056,1.24,1.056,2.019l0,0
				C126.316,138.405,125.844,138.762,125.261,138.426z"/>
			<path fill="#173D7A" d="M131.603,140.679c0,0.778-0.546,1.093-1.22,0.705c-0.674-0.389-1.22-1.335-1.22-2.113
				c0-0.777,0.546-1.093,1.22-0.704C131.057,138.955,131.603,139.901,131.603,140.679z"/>
			<path fill="#173D7A" d="M135.905,143.164c0,0.777-0.546,1.093-1.22,0.704c-0.674-0.389-1.22-1.335-1.22-2.113
				s0.546-1.093,1.22-0.705C135.359,141.439,135.905,142.385,135.905,143.164z"/>
			<path fill="#D4ECFF" d="M140.209,145.648c0,0.777-0.546,1.093-1.22,0.704s-1.22-1.335-1.22-2.113s0.546-1.093,1.22-0.705
				C139.663,143.924,140.209,144.87,140.209,145.648z"/>
			<path fill="#173D7A" d="M144.512,148.132c0,0.777-0.546,1.093-1.22,0.704s-1.22-1.335-1.22-2.112c0-0.778,0.546-1.094,1.22-0.705
				S144.512,147.354,144.512,148.132z"/>
			<path fill="#173D7A" d="M162.64,160.828l-2.507-1.448c-0.375-0.216-0.679-0.796-0.679-1.295v-2.652
				c0-0.499,0.304-0.729,0.679-0.513l2.507,1.447c0.374,0.217,0.678,0.796,0.678,1.296v2.652
				C163.317,160.815,163.014,161.044,162.64,160.828z"/>
		</g>
		<g>
			<path fill="#5793CE" d="M166.256,186.378l-52.907-30.545c-1.184-0.684-2.144-2.518-2.144-4.097v-10.088
				c0-1.579,0.96-2.305,2.144-1.621l52.907,30.546c1.184,0.684,2.144,2.518,2.144,4.097v10.088
				C168.399,186.337,167.439,187.062,166.256,186.378z"/>
			<path opacity="0.4" fill="#D4ECFF" d="M164.736,182.841l-49.868-28.792c-0.602-0.347-1.089-1.277-1.089-2.078v-7.584
				c0-0.801,0.487-1.17,1.089-0.823l49.868,28.792c0.602,0.347,1.088,1.278,1.088,2.079v7.584
				C165.824,182.82,165.338,183.188,164.736,182.841z"/>
			<path fill="#D4ECFF" d="M125.261,156.215l-7.442-4.296c-0.584-0.337-1.057-1.241-1.057-2.019l0,0
				c0-0.778,0.473-1.135,1.057-0.798l7.442,4.297c0.583,0.337,1.056,1.24,1.056,2.018l0,0
				C126.316,156.195,125.844,156.552,125.261,156.215z"/>
			<path fill="#FFFFFF" d="M131.603,158.469c0,0.778-0.546,1.093-1.22,0.705c-0.674-0.39-1.22-1.335-1.22-2.113
				c0-0.777,0.546-1.093,1.22-0.704C131.057,156.745,131.603,157.691,131.603,158.469z"/>
			<path fill="#173D7A" d="M135.905,160.953c0,0.778-0.546,1.093-1.22,0.705c-0.674-0.389-1.22-1.335-1.22-2.113
				s0.546-1.093,1.22-0.705C135.359,159.229,135.905,160.175,135.905,160.953z"/>
			<path fill="#D4ECFF" d="M140.209,163.438c0,0.777-0.546,1.093-1.22,0.704c-0.674-0.389-1.22-1.335-1.22-2.113
				s0.546-1.093,1.22-0.705C139.663,161.714,140.209,162.66,140.209,163.438z"/>
			<path fill="#173D7A" d="M144.512,165.922c0,0.777-0.546,1.093-1.22,0.704c-0.674-0.389-1.22-1.335-1.22-2.113
				s0.546-1.093,1.22-0.705C143.966,164.198,144.512,165.144,144.512,165.922z"/>
			<path fill="#173D7A" d="M162.64,178.618l-2.507-1.447c-0.375-0.216-0.679-0.796-0.679-1.295v-2.652
				c0-0.499,0.304-0.729,0.679-0.513l2.507,1.447c0.374,0.216,0.678,0.796,0.678,1.295v2.652
				C163.317,178.605,163.014,178.834,162.64,178.618z"/>
		</g>
		<g>
			<path fill="#5793CE" d="M166.256,204.169l-52.907-30.546c-1.184-0.684-2.144-2.518-2.144-4.097v-10.088
				c0-1.579,0.96-2.305,2.144-1.621l52.907,30.546c1.184,0.684,2.144,2.518,2.144,4.097v10.089
				C168.399,204.126,167.439,204.853,166.256,204.169z"/>
			<path opacity="0.4" fill="#D4ECFF" d="M164.736,200.631l-49.868-28.792c-0.602-0.347-1.089-1.277-1.089-2.078v-7.584
				c0-0.802,0.487-1.17,1.089-0.823l49.868,28.792c0.602,0.348,1.088,1.277,1.088,2.079v7.584
				C165.824,200.61,165.338,200.978,164.736,200.631z"/>
			<path fill="#D4ECFF" d="M125.261,174.005l-7.442-4.296c-0.584-0.337-1.057-1.241-1.057-2.019l0,0
				c0-0.778,0.473-1.135,1.057-0.798l7.442,4.297c0.583,0.337,1.056,1.24,1.056,2.018l0,0
				C126.316,173.985,125.844,174.342,125.261,174.005z"/>
			<path fill="#FFFFFF" d="M131.603,176.259c0,0.778-0.546,1.093-1.22,0.704s-1.22-1.334-1.22-2.113c0-0.777,0.546-1.093,1.22-0.704
				S131.603,175.481,131.603,176.259z"/>
			<path fill="#173D7A" d="M135.905,178.743c0,0.778-0.546,1.093-1.22,0.705c-0.674-0.39-1.22-1.335-1.22-2.113
				s0.546-1.093,1.22-0.705C135.359,177.02,135.905,177.965,135.905,178.743z"/>
			<path fill="#D4ECFF" d="M140.209,181.228c0,0.778-0.546,1.093-1.22,0.705c-0.674-0.389-1.22-1.335-1.22-2.113
				c0-0.777,0.546-1.093,1.22-0.704C139.663,179.504,140.209,180.45,140.209,181.228z"/>
			<path fill="#173D7A" d="M144.512,183.712c0,0.777-0.546,1.093-1.22,0.704c-0.674-0.39-1.22-1.335-1.22-2.113
				c0-0.777,0.546-1.093,1.22-0.704C143.966,181.988,144.512,182.934,144.512,183.712z"/>
			<path fill="#173D7A" d="M162.64,196.408l-2.507-1.447c-0.375-0.216-0.679-0.796-0.679-1.295v-2.652
				c0-0.499,0.304-0.729,0.679-0.513l2.507,1.447c0.374,0.216,0.678,0.796,0.678,1.296v2.652
				C163.317,196.394,163.014,196.625,162.64,196.408z"/>
		</g>
		<g>
			<path fill="#5793CE" d="M166.256,221.958l-52.907-30.545c-1.184-0.685-2.144-2.519-2.144-4.098v-10.088
				c0-1.579,0.96-2.305,2.144-1.621l52.907,30.546c1.184,0.684,2.144,2.518,2.144,4.097v10.088
				C168.399,221.917,167.439,222.642,166.256,221.958z"/>
			<path opacity="0.4" fill="#D4ECFF" d="M164.736,218.421l-49.868-28.792c-0.602-0.347-1.089-1.277-1.089-2.078v-7.585
				c0-0.801,0.487-1.169,1.089-0.822l49.868,28.792c0.602,0.347,1.088,1.277,1.088,2.079v7.584
				C165.824,218.4,165.338,218.768,164.736,218.421z"/>
			<path fill="#D4ECFF" d="M125.261,191.795l-7.442-4.297c-0.584-0.337-1.057-1.24-1.057-2.019l0,0c0-0.777,0.473-1.135,1.057-0.798
				l7.442,4.296c0.583,0.338,1.056,1.241,1.056,2.019l0,0C126.316,191.775,125.844,192.132,125.261,191.795z"/>
			<path fill="#173D7A" d="M131.603,194.048c0,0.778-0.546,1.094-1.22,0.705c-0.674-0.39-1.22-1.336-1.22-2.113
				s0.546-1.093,1.22-0.704S131.603,193.271,131.603,194.048z"/>
			<path fill="#173D7A" d="M135.905,196.533c0,0.778-0.546,1.094-1.22,0.705c-0.674-0.39-1.22-1.335-1.22-2.113
				c0-0.777,0.546-1.093,1.22-0.704S135.905,195.755,135.905,196.533z"/>
			<path fill="#D4ECFF" d="M140.209,199.017c0,0.778-0.546,1.094-1.22,0.705c-0.674-0.39-1.22-1.335-1.22-2.113
				c0-0.777,0.546-1.093,1.22-0.704S140.209,198.24,140.209,199.017z"/>
			<path fill="#173D7A" d="M144.512,201.501c0,0.778-0.546,1.094-1.22,0.705s-1.22-1.335-1.22-2.113c0-0.777,0.546-1.093,1.22-0.704
				C143.966,199.779,144.512,200.724,144.512,201.501z"/>
			<path fill="#D4ECFF" d="M162.64,214.198l-2.507-1.447c-0.375-0.216-0.679-0.796-0.679-1.295v-2.652
				c0-0.499,0.304-0.729,0.679-0.513l2.507,1.447c0.374,0.216,0.678,0.796,0.678,1.295v2.652
				C163.317,214.185,163.014,214.414,162.64,214.198z"/>
		</g>
		<g>
			<path fill="#5793CE" d="M166.256,239.749l-52.907-30.546c-1.184-0.684-2.144-2.518-2.144-4.097v-10.088
				c0-1.579,0.96-2.305,2.144-1.621l52.907,30.546c1.184,0.684,2.144,2.518,2.144,4.097v10.089
				C168.399,239.707,167.439,240.432,166.256,239.749z"/>
			<path opacity="0.4" fill="#D4ECFF" d="M164.736,236.211l-49.868-28.792c-0.602-0.347-1.089-1.277-1.089-2.078v-7.585
				c0-0.801,0.487-1.169,1.089-0.822l49.868,28.792c0.602,0.347,1.088,1.277,1.088,2.078v7.585
				C165.824,236.19,165.338,236.558,164.736,236.211z"/>
			<path fill="#D4ECFF" d="M125.261,209.585l-7.442-4.297c-0.584-0.337-1.057-1.24-1.057-2.019l0,0c0-0.777,0.473-1.136,1.057-0.798
				l7.442,4.297c0.583,0.336,1.056,1.24,1.056,2.018l0,0C126.316,209.565,125.844,209.922,125.261,209.585z"/>
			<path fill="#173D7A" d="M131.603,211.838c0,0.778-0.546,1.094-1.22,0.704c-0.674-0.389-1.22-1.334-1.22-2.112
				s0.546-1.093,1.22-0.704S131.603,211.06,131.603,211.838z"/>
			<path fill="#FFFFFF" d="M135.905,214.323c0,0.778-0.546,1.094-1.22,0.704c-0.674-0.389-1.22-1.334-1.22-2.112
				c0-0.777,0.546-1.093,1.22-0.704S135.905,213.545,135.905,214.323z"/>
			<path fill="#D4ECFF" d="M140.209,216.808c0,0.777-0.546,1.093-1.22,0.704c-0.674-0.39-1.22-1.335-1.22-2.113
				s0.546-1.093,1.22-0.704S140.209,216.03,140.209,216.808z"/>
			<path fill="#FFFFFF" d="M144.512,219.292c0,0.777-0.546,1.093-1.22,0.703c-0.674-0.389-1.22-1.334-1.22-2.112
				c0-0.777,0.546-1.093,1.22-0.704S144.512,218.514,144.512,219.292z"/>
			<path fill="#D4ECFF" d="M162.64,231.988l-2.507-1.447c-0.375-0.217-0.679-0.796-0.679-1.295v-2.652
				c0-0.5,0.304-0.729,0.679-0.513l2.507,1.447c0.374,0.216,0.678,0.796,0.678,1.295v2.652
				C163.317,231.974,163.014,232.205,162.64,231.988z"/>
		</g>
		<g>
			<path fill="#5793CE" d="M166.256,257.539l-52.907-30.546c-1.184-0.684-2.144-2.518-2.144-4.097v-10.088
				c0-1.579,0.96-2.305,2.144-1.621l52.907,30.545c1.184,0.685,2.144,2.519,2.144,4.098v10.088
				C168.399,257.497,167.439,258.222,166.256,257.539z"/>
			<path opacity="0.4" fill="#D4ECFF" d="M164.736,254.001l-49.868-28.792c-0.602-0.347-1.089-1.277-1.089-2.079v-7.584
				c0-0.801,0.487-1.169,1.089-0.822l49.868,28.792c0.602,0.347,1.088,1.277,1.088,2.078v7.585
				C165.824,253.98,165.338,254.348,164.736,254.001z"/>
			<path fill="#D4ECFF" d="M125.261,227.375l-7.442-4.297c-0.584-0.337-1.057-1.24-1.057-2.019l0,0c0-0.777,0.473-1.135,1.057-0.799
				l7.442,4.297c0.583,0.337,1.056,1.24,1.056,2.019l0,0C126.316,227.355,125.844,227.712,125.261,227.375z"/>
			<path fill="#173D7A" d="M131.603,229.628c0,0.778-0.546,1.094-1.22,0.704c-0.674-0.389-1.22-1.335-1.22-2.112
				c0-0.778,0.546-1.094,1.22-0.704C131.057,227.905,131.603,228.851,131.603,229.628z"/>
			<path fill="#173D7A" d="M135.905,232.113c0,0.778-0.546,1.094-1.22,0.704c-0.674-0.389-1.22-1.335-1.22-2.112
				c0-0.778,0.546-1.094,1.22-0.704C135.359,230.389,135.905,231.335,135.905,232.113z"/>
			<path fill="#D4ECFF" d="M140.209,234.597c0,0.778-0.546,1.094-1.22,0.704c-0.674-0.389-1.22-1.335-1.22-2.112
				s0.546-1.094,1.22-0.704C139.663,232.874,140.209,233.82,140.209,234.597z"/>
			<path fill="#173D7A" d="M144.512,237.082c0,0.778-0.546,1.094-1.22,0.705c-0.674-0.39-1.22-1.336-1.22-2.113
				s0.546-1.093,1.22-0.704S144.512,236.304,144.512,237.082z"/>
			<path fill="#173D7A" d="M162.64,249.778l-2.507-1.447c-0.375-0.216-0.679-0.796-0.679-1.296v-2.652
				c0-0.499,0.304-0.729,0.679-0.512l2.507,1.447c0.374,0.216,0.678,0.796,0.678,1.295v2.652
				C163.317,249.764,163.014,249.994,162.64,249.778z"/>
		</g>
		<g>
			<path fill="#5793CE" d="M166.256,275.329l-52.907-30.546c-1.184-0.684-2.144-2.518-2.144-4.097v-10.088
				c0-1.579,0.96-2.305,2.144-1.621l52.907,30.546c1.184,0.684,2.144,2.518,2.144,4.096v10.089
				C168.399,275.287,167.439,276.012,166.256,275.329z"/>
			<path opacity="0.4" fill="#D4ECFF" d="M164.736,271.792L114.868,243c-0.602-0.348-1.089-1.277-1.089-2.078v-7.585
				c0-0.801,0.487-1.169,1.089-0.822l49.868,28.792c0.602,0.347,1.088,1.277,1.088,2.078v7.584
				C165.824,271.77,165.338,272.138,164.736,271.792z"/>
			<path fill="#D4ECFF" d="M125.261,245.166l-7.442-4.297c-0.584-0.337-1.057-1.24-1.057-2.019l0,0c0-0.778,0.473-1.136,1.057-0.799
				l7.442,4.297c0.583,0.337,1.056,1.241,1.056,2.019l0,0C126.316,245.144,125.844,245.502,125.261,245.166z"/>
			<path fill="#FFFFFF" d="M131.603,247.418c0,0.778-0.546,1.093-1.22,0.704s-1.22-1.335-1.22-2.112c0-0.778,0.546-1.094,1.22-0.704
				C131.057,245.695,131.603,246.64,131.603,247.418z"/>
			<path fill="#173D7A" d="M135.905,249.903c0,0.778-0.546,1.093-1.22,0.704s-1.22-1.335-1.22-2.112c0-0.778,0.546-1.093,1.22-0.704
				S135.905,249.125,135.905,249.903z"/>
			<path fill="#D4ECFF" d="M140.209,252.387c0,0.778-0.546,1.093-1.22,0.704s-1.22-1.334-1.22-2.112s0.546-1.093,1.22-0.704
				S140.209,251.61,140.209,252.387z"/>
			<path fill="#173D7A" d="M144.512,254.872c0,0.778-0.546,1.094-1.22,0.704c-0.674-0.389-1.22-1.334-1.22-2.112
				s0.546-1.093,1.22-0.704S144.512,254.094,144.512,254.872z"/>
			<path fill="#D4ECFF" d="M162.64,267.568l-2.507-1.447c-0.375-0.217-0.679-0.797-0.679-1.296v-2.651
				c0-0.5,0.304-0.729,0.679-0.514l2.507,1.447c0.374,0.217,0.678,0.797,0.678,1.296v2.652
				C163.317,267.554,163.014,267.784,162.64,267.568z"/>
		</g>
	</g>
	<g>
		<path fill="#5793CE" d="M150.867,113.282c-0.441,0-0.799-0.357-0.799-0.799V79.595c0-0.441,0.357-0.798,0.799-0.798
			s0.799,0.357,0.799,0.798v32.888C151.666,112.924,151.309,113.282,150.867,113.282z"/>
		<g>
			<g>
				<rect x="148.01" y="77.527" fill="#5793CE" width="5.714" height="12.33"/>
				<path fill="#5793CE" d="M152.887,91.023c-1.115,0.644-2.924,0.644-4.04,0c-1.115-0.644-1.115-1.688,0-2.332
					c1.116-0.645,2.925-0.645,4.04,0C154.003,89.334,154.003,90.379,152.887,91.023z"/>
			</g>
			<g>
				<rect x="146.237" y="60.343" fill="#5793CE" width="9.259" height="19.338"/>
				<path fill="#396CAA" d="M148.01,79.555v4.173c1.677,0.766,4.037,0.766,5.714,0v-4.173
					C152.047,78.79,149.687,78.79,148.01,79.555z"/>
				<path fill="#5793CE" d="M154.141,81.571c-1.808,1.044-4.739,1.044-6.547,0c-1.808-1.043-1.809-2.736,0-3.779
					c1.808-1.044,4.738-1.044,6.547,0C155.948,78.835,155.948,80.527,154.141,81.571z"/>
			</g>
		</g>
	</g>
	<g>
		<path fill="#5793CE" d="M158.675,117.944c-0.441,0-0.799-0.357-0.799-0.799V84.257c0-0.441,0.357-0.799,0.799-0.799
			s0.799,0.357,0.799,0.799v32.888C159.474,117.587,159.116,117.944,158.675,117.944z"/>
		<g>
			<g>
				<rect x="155.818" y="82.19" fill="#5793CE" width="5.714" height="12.33"/>
				<path fill="#5793CE" d="M160.695,95.686c-1.115,0.644-2.925,0.644-4.04,0c-1.116-0.645-1.116-1.688,0-2.333
					c1.115-0.644,2.924-0.644,4.04,0C161.811,93.998,161.811,95.042,160.695,95.686z"/>
			</g>
			<g>
				<rect x="154.046" y="65.005" fill="#5793CE" width="9.259" height="19.338"/>
				<path fill="#396CAA" d="M155.818,84.218v4.172c1.677,0.767,4.037,0.767,5.714,0v-4.173
					C159.855,83.452,157.495,83.452,155.818,84.218z"/>
				<path fill="#5793CE" d="M161.948,86.234c-1.808,1.043-4.738,1.043-6.547,0c-1.808-1.044-1.808-2.736,0-3.78s4.739-1.044,6.547,0
					C163.757,83.498,163.757,85.19,161.948,86.234z"/>
			</g>
		</g>
	</g>
	<g>
		<path fill="#5793CE" d="M166.483,122.607c-0.441,0-0.799-0.357-0.799-0.799V88.92c0-0.441,0.357-0.799,0.799-0.799
			s0.799,0.357,0.799,0.799v32.888C167.282,122.25,166.925,122.607,166.483,122.607z"/>
		<g>
			<g>
				<rect x="163.626" y="86.852" fill="#5793CE" width="5.714" height="12.33"/>
				<path fill="#5793CE" d="M168.503,100.348c-1.115,0.645-2.924,0.645-4.04,0c-1.115-0.644-1.115-1.688,0-2.333
					c1.116-0.644,2.925-0.644,4.04,0C169.619,98.66,169.619,99.704,168.503,100.348z"/>
			</g>
			<g>
				<rect x="161.854" y="69.667" fill="#5793CE" width="9.259" height="19.339"/>
				<path fill="#396CAA" d="M163.626,88.88v4.173c1.677,0.766,4.037,0.766,5.714,0V88.88
					C167.663,88.115,165.303,88.115,163.626,88.88z"/>
				<path fill="#5793CE" d="M169.757,90.896c-1.808,1.044-4.739,1.044-6.547,0s-1.809-2.736,0-3.78c1.808-1.044,4.738-1.044,6.547,0
					C171.564,88.16,171.564,89.852,169.757,90.896z"/>
			</g>
		</g>
	</g>
	<g>
		<path fill="#5793CE" d="M174.291,127.269c-0.441,0-0.799-0.357-0.799-0.799V93.583c0-0.441,0.357-0.799,0.799-0.799
			s0.799,0.357,0.799,0.799v32.888C175.09,126.912,174.732,127.269,174.291,127.269z"/>
		<g>
			<g>
				<rect x="171.435" y="91.514" fill="#5793CE" width="5.714" height="12.33"/>
				<path fill="#5793CE" d="M176.312,105.011c-1.116,0.644-2.925,0.644-4.04,0c-1.116-0.644-1.116-1.689,0-2.333
					c1.115-0.645,2.924-0.645,4.04,0C177.427,103.322,177.427,104.367,176.312,105.011z"/>
			</g>
			<g>
				<rect x="169.662" y="74.331" fill="#5793CE" width="9.259" height="19.338"/>
				<path fill="#396CAA" d="M171.435,93.543v4.172c1.677,0.766,4.037,0.766,5.714,0v-4.172
					C175.472,92.777,173.111,92.777,171.435,93.543z"/>
				<path fill="#5793CE" d="M177.564,95.558c-1.808,1.044-4.738,1.044-6.547,0c-1.808-1.043-1.808-2.736,0-3.779
					c1.808-1.044,4.739-1.044,6.547,0C179.373,92.823,179.373,94.515,177.564,95.558z"/>
			</g>
		</g>
	</g>
	<g>
		<g>
			<polygon fill="#5793CE" points="210.58,109.686 222.994,102.375 211.172,87.619 208.063,92.697 			"/>
			<path fill="#5793CE" d="M120.44,28.701l19.813-11.398c0,0-0.745,11.375-0.745,11.398s-11.382,3.525-11.382,3.525L120.44,28.701z"
				/>
			<path fill="#5793CE" d="M214.03,72.581c-1.508-0.871-2.947-1.379-4.286-1.589c-1.998-10.498-9.303-21.647-18.014-26.676
				c-2.619-1.512-5.111-2.321-7.371-2.495c-1.189-12.725-10.037-27.187-20.781-33.389c-5.612-3.241-10.704-3.624-14.462-1.639
				l0.001-0.01l-0.183,0.105c-0.096,0.053-0.191,0.108-0.285,0.164l-11.684,6.9l3.883,3.066c-3.485,1.522-5.688,5.431-5.688,11.208
				c0,10.654,7.479,23.609,16.706,28.936l62.163,44.389c6.929,4,12.545,0.758,12.545-7.242S220.959,76.581,214.03,72.581z"/>
			<path fill="#5793CE" d="M135.737,23.536l26.815-15.667c-5.206-2.715-9.909-2.939-13.437-1.076l0.001-0.01l-0.183,0.105
				c-0.096,0.053-0.191,0.108-0.285,0.164l-11.684,6.9l3.883,3.066C138.412,18.083,136.606,20.316,135.737,23.536z"/>
			<path fill="#5793CE" d="M185.258,69.625l19.565-11.481c-3.356-5.805-7.977-10.875-13.093-13.829
				c-0.677-0.391-1.345-0.733-2.003-1.031l-24.886,14.554L185.258,69.625z"/>
			<path fill="#D4ECFF" d="M142.479,15.233l8.72,5.034l15.968-9.404c-1.166-0.906-2.364-1.725-3.588-2.431
				c-1.934-1.117-3.803-1.886-5.58-2.344L142.479,15.233z"/>
			<path fill="#D4ECFF" d="M202.665,54.766l-15.615,9.201l5.431,6.058l14.176-8.37C205.535,59.253,204.188,56.932,202.665,54.766z"
				/>
			<path fill="#D4ECFF" d="M201.765,79.806c-1.508-0.871-2.947-1.379-4.287-1.589c-1.997-10.498-9.303-21.647-18.013-26.677
				c-2.62-1.512-5.111-2.32-7.371-2.494c-1.189-12.725-10.037-27.187-20.781-33.39c-11.555-6.671-20.922-1.264-20.922,12.078
				c0,0.453,0.013,0.909,0.034,1.368c-8.449-3.919-15.052,0.497-15.052,10.506c0,10.653,7.48,23.608,16.707,28.936l69.685,40.232
				c6.929,4,12.545,0.758,12.545-7.243C214.31,93.534,208.693,83.806,201.765,79.806z"/>
			<g>
				<path fill="#FFFFFF" d="M130.425,29.103c-0.021-0.459-0.034-0.915-0.034-1.368c0-0.019,0.001-0.037,0.001-0.056
					c-4.668-1.815-8.679-1.025-11.196,1.887C121.93,27.315,125.907,27.008,130.425,29.103z"/>
				<path fill="#FFFFFF" d="M202.785,78.812c-1.509-0.871-2.948-1.378-4.287-1.588c-1.997-10.499-9.303-21.647-18.013-26.677
					c-2.62-1.513-5.111-2.32-7.372-2.494c-1.188-12.726-10.036-27.187-20.78-33.39c-7.199-4.156-13.548-3.623-17.312,0.596
					c3.835-3.277,9.706-3.403,16.291,0.398c10.744,6.203,19.592,20.665,20.781,33.39c2.26,0.174,4.751,0.982,7.371,2.494
					c8.71,5.029,16.016,16.178,18.013,26.677c1.34,0.21,2.779,0.718,4.287,1.589c6.929,4,12.545,13.728,12.545,21.728
					c0,2.887-0.739,5.143-2,6.674c1.879-1.448,3.021-4.072,3.021-7.668C215.33,92.54,209.713,82.812,202.785,78.812z"/>
			</g>
			<g>
				<path fill="#396CAA" d="M128.951,32.281l5.238,2.429l-0.267-5.768c-0.019-0.405-0.03-0.807-0.03-1.207
					c0-5.148,1.555-8.881,4.377-10.511c2.822-1.628,6.833-1.108,11.292,1.466c9.589,5.536,17.954,19.014,19.045,30.682l0.274,2.94
					l2.944,0.227c1.81,0.139,3.79,0.823,5.889,2.035c7.616,4.397,14.481,14.616,16.323,24.298l0.461,2.424l2.438,0.381
					c0.971,0.153,2.006,0.543,3.078,1.163c5.851,3.378,10.794,11.939,10.794,18.694c0,2.528-0.701,4.384-1.924,5.089
					c-1.221,0.705-3.178,0.385-5.368-0.879l-69.685-40.233c-8.106-4.68-14.955-16.542-14.955-25.903
					c0-3.673,1.083-6.471,2.972-7.678c0.777-0.496,1.718-0.743,2.777-0.743C125.915,31.188,127.383,31.553,128.951,32.281z"/>
			</g>
		</g>
		<g>
			<polygon fill="#5793CE" points="163.73,75.955 165.568,75.032 163.759,73.661 			"/>
			<polygon fill="#5793CE" points="158.209,51.123 159.994,50.22 160.026,51.154 			"/>
			<polygon fill="#5793CE" points="168.975,70.15 170.837,69.213 167.252,65.804 			"/>
			<g>
				<path fill="#5793CE" d="M165.03,74.973l-8.703-5.126c-0.441-0.26-0.798-0.916-0.797-1.464l0.028-10.075l10.303,6.068
					l-0.028,10.076C165.832,75,165.473,75.233,165.03,74.973z"/>
				<path fill="#5793CE" d="M159.975,50.231l-9.399,6.048c-0.399,0.257-0.077,1.214,0.529,1.57l9.6,5.654l9.601,5.654
					c0.605,0.356,0.933-0.218,0.536-0.943l-9.334-17.083C161.104,50.396,160.381,49.97,159.975,50.231z"/>
			</g>
			<g>
				<path fill="#D4ECFF" d="M163.164,75.913l-8.703-5.126c-0.441-0.26-0.799-0.915-0.797-1.463l0.028-10.076l10.303,6.068
					l-0.028,10.076C163.965,75.939,163.605,76.173,163.164,75.913z"/>
				<path fill="#D4ECFF" d="M158.108,51.171l-9.399,6.049c-0.399,0.256-0.077,1.213,0.528,1.57l9.601,5.654l9.6,5.654
					c0.606,0.357,0.933-0.218,0.537-0.942l-9.335-17.083C159.236,51.335,158.515,50.91,158.108,51.171z"/>
			</g>
		</g>
	</g>
	<polygon fill="#FFFFFF" points="194.6,254.555 193.533,254.555 193.533,194.988 200.567,190.926 200.567,161.604 201.634,161.604 
		201.634,191.542 194.6,195.603 	"/>
	<g>
		<path fill="#B2D3EA" d="M25.501,267.424c-0.62,0-1.24-0.159-1.802-0.478L4.262,255.941c-0.59-0.333-0.944-0.938-0.948-1.615
			c-0.002-0.678,0.346-1.285,0.932-1.624l48.482-28.045c2.782-1.608,6.238-1.605,9.019-0.001l55.415,32.028l-0.801,1.386
			l-55.414-32.029c-2.287-1.32-5.13-1.32-7.419,0L5.047,254.084c-0.117,0.068-0.134,0.177-0.134,0.233
			c0,0.059,0.019,0.166,0.136,0.232l19.438,11.006c0.67,0.379,1.484,0.356,2.13-0.063l8.214-5.311l0.868,1.342l-8.214,5.313
			C26.88,267.228,26.191,267.424,25.501,267.424z"/>
	</g>
	<g>
		<path fill="#B2D3EA" d="M50.811,271.677l-26.129-15.085c-1.604-0.927-1.402-2.544,0.449-3.612l25.229-14.566
			c1.852-1.068,4.652-1.186,6.256-0.259l26.129,15.085c1.604,0.926,1.402,2.543-0.449,3.612l-25.229,14.565
			C55.215,272.487,52.414,272.603,50.811,271.677z"/>
		<g>
			<path fill="#396CAA" d="M91.413,241.75L91.413,241.75V230.46l-25.314-0.014l-8.75-5.053c-2.008-1.159-5.516-1.014-7.834,0.325
				l-8.164,4.714l-25.337-0.015v11.61c-0.057,0.785,0.38,1.542,1.345,2.1l32.719,18.89c2.008,1.159,5.516,1.014,7.834-0.325
				l31.593-18.239C90.843,243.681,91.488,242.681,91.413,241.75z"/>
			<path fill="#396CAA" d="M53.714,224.618c-1.47,0.036-2.994,0.406-4.199,1.102l-8.164,4.714l-25.337-0.015v11.61
				c-0.057,0.785,0.38,1.542,1.345,2.1l32.719,18.89c0.965,0.558,2.276,0.81,3.636,0.776V224.618z"/>
			<path fill="#5793CE" d="M18.882,230.419l-2.868-0.001v11.61c-0.057,0.785,0.38,1.542,1.345,2.1l1.522,0.878V230.419z"/>
			<path fill="#5793CE" d="M50.582,263.265c1.732,0.742,4.237,0.7,6.263-0.072V250.01h-6.263V263.265z"/>
			<path fill="#D4ECFF" d="M50.078,251.45l-32.719-18.891c-2.008-1.159-1.756-3.185,0.563-4.522l31.593-18.24
				c2.318-1.339,5.826-1.484,7.834-0.325l32.719,18.891c2.009,1.159,1.757,3.185-0.563,4.523l-31.593,18.239
				C55.594,252.463,52.086,252.609,50.078,251.45z"/>
			<path fill="#5793CE" d="M50.667,248.049l-27.418-15.83c-1.683-0.972-1.472-2.669,0.471-3.79l26.475-15.285
				c1.943-1.122,4.883-1.244,6.565-0.272l27.419,15.83c1.683,0.972,1.472,2.669-0.472,3.79l-26.475,15.285
				C55.289,248.899,52.35,249.021,50.667,248.049z"/>
			<g>
				<path fill="#D4ECFF" d="M79.379,244.729c0,0.843-0.592,1.867-1.322,2.289c-0.729,0.421-1.321,0.08-1.321-0.763
					c0-0.844,0.592-1.868,1.321-2.289C78.787,243.544,79.379,243.886,79.379,244.729z"/>
				<path fill="#D4ECFF" d="M83.631,242.274c0,0.843-0.592,1.868-1.322,2.289c-0.729,0.421-1.321,0.08-1.321-0.763
					s0.592-1.867,1.321-2.289C83.039,241.089,83.631,241.431,83.631,242.274z"/>
				<path fill="#D4ECFF" d="M87.882,239.82c0,0.842-0.591,1.867-1.321,2.288c-0.729,0.422-1.321,0.08-1.321-0.763
					s0.592-1.867,1.321-2.289C87.291,238.635,87.882,238.976,87.882,239.82z"/>
			</g>
		</g>
		<g>
			<path fill="#396CAA" d="M91.413,223.708L91.413,223.708v-11.289l-25.314-0.014l-8.75-5.053c-2.008-1.158-5.516-1.014-7.834,0.325
				l-8.164,4.714l-25.337-0.015v11.61c-0.057,0.785,0.38,1.542,1.345,2.1l32.719,18.89c2.008,1.159,5.516,1.014,7.834-0.325
				l31.593-18.239C90.843,225.64,91.488,224.64,91.413,223.708z"/>
			<path fill="#396CAA" d="M53.714,206.577c-1.47,0.036-2.994,0.406-4.199,1.102l-8.164,4.714l-25.337-0.015v11.61
				c-0.057,0.785,0.38,1.542,1.345,2.1l32.719,18.89c0.965,0.558,2.276,0.81,3.636,0.776V206.577z"/>
			<path fill="#5793CE" d="M18.882,212.378l-2.868-0.001v11.61c-0.057,0.785,0.38,1.542,1.345,2.1l1.522,0.879V212.378z"/>
			<path fill="#5793CE" d="M50.582,245.224c1.732,0.742,4.237,0.7,6.263-0.072V231.97h-6.263V245.224z"/>
			<path fill="#D4ECFF" d="M50.078,233.409l-32.719-18.891c-2.008-1.159-1.756-3.185,0.563-4.522l31.593-18.24
				c2.318-1.339,5.826-1.484,7.834-0.325l32.719,18.891c2.009,1.159,1.757,3.185-0.563,4.522l-31.593,18.24
				C55.594,234.422,52.086,234.568,50.078,233.409z"/>
			<path fill="#5793CE" d="M50.667,230.008l-27.418-15.83c-1.683-0.972-1.472-2.669,0.471-3.79l26.475-15.285
				c1.943-1.122,4.883-1.244,6.565-0.272l27.419,15.83c1.683,0.972,1.472,2.669-0.472,3.79l-26.475,15.285
				C55.289,230.858,52.35,230.98,50.667,230.008z"/>
			<g>
				<path fill="#D4ECFF" d="M79.379,226.688c0,0.843-0.592,1.867-1.322,2.289c-0.729,0.421-1.321,0.08-1.321-0.763
					s0.592-1.868,1.321-2.289C78.787,225.503,79.379,225.845,79.379,226.688z"/>
				<path fill="#D4ECFF" d="M83.631,224.233c0,0.843-0.592,1.868-1.322,2.289c-0.729,0.422-1.321,0.08-1.321-0.763
					s0.592-1.867,1.321-2.289C83.039,223.048,83.631,223.39,83.631,224.233z"/>
				<path fill="#D4ECFF" d="M87.882,221.779c0,0.842-0.591,1.867-1.321,2.289c-0.729,0.421-1.321,0.079-1.321-0.764
					s0.592-1.867,1.321-2.289C87.291,220.594,87.882,220.935,87.882,221.779z"/>
			</g>
		</g>
		<g>
			<path fill="#396CAA" d="M91.413,205.667L91.413,205.667v-11.289l-25.314-0.014l-8.75-5.052c-2.008-1.159-5.516-1.015-7.834,0.324
				l-8.164,4.714l-25.337-0.015v11.61c-0.057,0.785,0.38,1.542,1.345,2.1l32.719,18.89c2.008,1.159,5.516,1.014,7.834-0.325
				l31.593-18.239C90.843,207.599,91.488,206.599,91.413,205.667z"/>
			<path fill="#396CAA" d="M53.714,188.536c-1.47,0.036-2.994,0.406-4.199,1.102l-8.164,4.714l-25.337-0.015v11.61
				c-0.057,0.785,0.38,1.542,1.345,2.1l32.719,18.89c0.965,0.558,2.276,0.81,3.636,0.776V188.536z"/>
			<path fill="#5793CE" d="M18.882,194.338l-2.868-0.002v11.61c-0.057,0.785,0.38,1.542,1.345,2.1l1.522,0.879V194.338z"/>
			<path fill="#5793CE" d="M50.582,227.183c1.732,0.742,4.237,0.7,6.263-0.072v-13.182h-6.263V227.183z"/>
			<path fill="#D4ECFF" d="M50.078,215.368l-32.719-18.89c-2.008-1.16-1.756-3.186,0.563-4.523l31.593-18.24
				c2.318-1.339,5.826-1.484,7.834-0.325l32.719,18.891c2.009,1.159,1.757,3.185-0.563,4.522l-31.593,18.24
				C55.594,216.381,52.086,216.527,50.078,215.368z"/>
			<path fill="#FFFFFF" d="M89.505,194.582l-31.593,18.239c-2.318,1.339-5.826,1.484-7.834,0.325l-32.719-18.891
				c-0.448-0.258-0.777-0.561-1.002-0.889c-0.69,1.11-0.377,2.314,1.002,3.11l32.719,18.891c2.008,1.159,5.516,1.014,7.834-0.325
				l31.593-18.24c1.802-1.039,2.35-2.492,1.564-3.634C90.755,193.675,90.231,194.162,89.505,194.582z"/>
			<g>
				<path fill="#D4ECFF" d="M79.379,208.647c0,0.843-0.592,1.867-1.322,2.289c-0.729,0.421-1.321,0.08-1.321-0.763
					s0.592-1.868,1.321-2.289C78.787,207.462,79.379,207.804,79.379,208.647z"/>
				<path fill="#D4ECFF" d="M83.631,206.192c0,0.843-0.592,1.868-1.322,2.289c-0.729,0.422-1.321,0.08-1.321-0.763
					s0.592-1.867,1.321-2.289C83.039,205.007,83.631,205.349,83.631,206.192z"/>
				<path fill="#D4ECFF" d="M87.882,203.738c0,0.842-0.591,1.867-1.321,2.289c-0.729,0.421-1.321,0.079-1.321-0.764
					s0.592-1.867,1.321-2.289C87.291,202.553,87.882,202.894,87.882,203.738z"/>
			</g>
			<g>
				<path fill="#5793CE" d="M52.013,203.656l-15.311-8.84c-0.94-0.542-0.822-1.49,0.263-2.116l14.784-8.535
					c1.085-0.627,2.727-0.694,3.666-0.152l15.311,8.84c0.94,0.542,0.822,1.49-0.263,2.116l-14.784,8.535
					C54.594,204.13,52.952,204.199,52.013,203.656z"/>
				<path fill="#D4ECFF" d="M53.479,196.254l-2.118-1.223c-0.13-0.075-0.113-0.206,0.036-0.293l2.046-1.181
					c0.149-0.087,0.377-0.096,0.507-0.021l2.118,1.223c0.13,0.075,0.114,0.207-0.036,0.293l-2.046,1.182
					C53.836,196.32,53.608,196.33,53.479,196.254z"/>
				<path fill="#396CAA" d="M36.702,194.816l0.043,0.025c0.071-0.051,0.137-0.104,0.22-0.151l14.784-8.535
					c1.085-0.626,2.727-0.694,3.666-0.151l15.268,8.814c0.866-0.621,0.911-1.465,0.043-1.966l-15.311-8.84
					c-0.939-0.542-2.581-0.475-3.666,0.152L36.965,192.7C35.88,193.326,35.762,194.274,36.702,194.816z"/>
			</g>
		</g>
		<g>
			<path fill="#D4ECFF" d="M47.97,218.667c0,0.567-0.398,0.797-0.89,0.514c-0.491-0.284-0.89-0.974-0.89-1.54
				c0-0.567,0.398-0.797,0.89-0.514S47.97,218.099,47.97,218.667z"/>
			<path fill="#D4ECFF" d="M45.211,217.084c0,0.567-0.398,0.797-0.89,0.514c-0.491-0.284-0.89-0.974-0.89-1.541
				s0.398-0.797,0.89-0.513C44.813,215.828,45.211,216.517,45.211,217.084z"/>
			<path fill="#D4ECFF" d="M47.97,221.996c0,0.567-0.398,0.797-0.89,0.514s-0.89-0.973-0.89-1.54s0.398-0.797,0.89-0.514
				C47.571,220.74,47.97,221.429,47.97,221.996z"/>
			<path fill="#D4ECFF" d="M45.211,220.414c0,0.567-0.398,0.797-0.89,0.514s-0.89-0.974-0.89-1.541c0-0.566,0.398-0.797,0.89-0.513
				C44.813,219.157,45.211,219.846,45.211,220.414z"/>
		</g>
		<g>
			<path fill="#D4ECFF" d="M47.97,236.618c0,0.567-0.398,0.798-0.89,0.514c-0.491-0.283-0.89-0.974-0.89-1.54
				c0-0.567,0.398-0.797,0.89-0.514S47.97,236.051,47.97,236.618z"/>
			<path fill="#D4ECFF" d="M45.211,235.036c0,0.567-0.398,0.797-0.89,0.514c-0.491-0.284-0.89-0.974-0.89-1.54
				c0-0.567,0.398-0.797,0.89-0.514S45.211,234.468,45.211,235.036z"/>
			<path fill="#D4ECFF" d="M47.97,239.948c0,0.566-0.398,0.797-0.89,0.513c-0.491-0.283-0.89-0.973-0.89-1.54
				s0.398-0.797,0.89-0.513C47.571,238.691,47.97,239.38,47.97,239.948z"/>
			<path fill="#D4ECFF" d="M45.211,238.365c0,0.567-0.398,0.797-0.89,0.514s-0.89-0.973-0.89-1.54s0.398-0.797,0.89-0.514
				C44.813,237.109,45.211,237.798,45.211,238.365z"/>
		</g>
		<g>
			<path fill="#D4ECFF" d="M47.97,254.57c0,0.566-0.398,0.797-0.89,0.513c-0.491-0.283-0.89-0.973-0.89-1.54s0.398-0.797,0.89-0.514
				C47.571,253.313,47.97,254.002,47.97,254.57z"/>
			<path fill="#D4ECFF" d="M45.211,252.987c0,0.567-0.398,0.797-0.89,0.514s-0.89-0.974-0.89-1.54c0-0.567,0.398-0.797,0.89-0.514
				S45.211,252.419,45.211,252.987z"/>
			<path fill="#D4ECFF" d="M47.97,257.899c0,0.567-0.398,0.797-0.89,0.513c-0.491-0.283-0.89-0.973-0.89-1.54
				c0-0.566,0.398-0.797,0.89-0.513C47.571,256.642,47.97,257.332,47.97,257.899z"/>
			<path fill="#D4ECFF" d="M45.211,256.316c0,0.567-0.398,0.798-0.89,0.514c-0.491-0.283-0.89-0.973-0.89-1.54
				s0.398-0.797,0.89-0.514C44.813,255.06,45.211,255.75,45.211,256.316z"/>
		</g>
	</g>
	<path fill="#B2D3EA" d="M54.139,285.103c-0.937,0-1.872-0.242-2.706-0.725l-16.487-9.569c-0.561-0.326-0.895-0.907-0.895-1.554
		c0-0.648,0.335-1.229,0.896-1.555l10.843-6.288l0.803,1.384l-10.842,6.287c-0.083,0.049-0.1,0.119-0.1,0.172
		c0,0.052,0.017,0.125,0.098,0.171l16.487,9.568c1.164,0.675,2.612,0.679,3.78,0.015l32.293-18.402
		c1.663-0.946,3.725-0.938,5.378,0.023l27.051,15.623c1.175,0.684,2.634,0.686,3.807,0.006l13.043-7.543l0.801,1.385l-13.043,7.543
		c-1.67,0.966-3.741,0.962-5.409-0.008l-27.05-15.623c-1.166-0.678-2.616-0.684-3.786-0.018l-32.293,18.402
		C55.982,284.868,55.061,285.103,54.139,285.103z"/>
	<g>
		<path fill="#B2D3EA" d="M197.364,345.976l-26.128-15.085c-1.604-0.926-1.403-2.543,0.449-3.612l25.229-14.565
			c1.852-1.069,4.653-1.186,6.257-0.26l26.128,15.085c1.604,0.926,1.403,2.543-0.449,3.612l-25.229,14.566
			C201.77,346.787,198.968,346.902,197.364,345.976z"/>
		<g>
			<path fill="#396CAA" d="M237.967,316.048L237.967,316.048V304.76l-25.314-0.015l-8.749-5.052
				c-2.009-1.159-5.517-1.014-7.835,0.325l-8.163,4.713l-25.337-0.015v11.61c-0.058,0.785,0.38,1.543,1.345,2.1l32.719,18.89
				c2.009,1.159,5.516,1.015,7.835-0.324l31.592-18.24C237.396,317.98,238.042,316.98,237.967,316.048z"/>
			<path fill="#396CAA" d="M200.268,298.917c-1.469,0.035-2.994,0.405-4.199,1.102l-8.163,4.713l-25.337-0.015v11.61
				c-0.058,0.785,0.38,1.543,1.345,2.1l32.719,18.89c0.965,0.558,2.277,0.81,3.636,0.777V298.917z"/>
			<path fill="#5793CE" d="M165.436,304.719l-2.867-0.002v11.61c-0.058,0.785,0.38,1.543,1.345,2.1l1.522,0.879V304.719z"/>
			<path fill="#5793CE" d="M197.137,337.564c1.731,0.742,4.236,0.701,6.262-0.071V324.31h-6.262V337.564z"/>
			<path fill="#D4ECFF" d="M196.632,325.75l-32.719-18.891c-2.008-1.16-1.756-3.185,0.563-4.523l31.593-18.24
				c2.318-1.338,5.826-1.484,7.835-0.324l32.718,18.89c2.009,1.159,1.757,3.185-0.563,4.523l-31.592,18.239
				C202.147,326.763,198.641,326.908,196.632,325.75z"/>
			<path fill="#5793CE" d="M197.221,322.349l-27.418-15.83c-1.683-0.972-1.472-2.669,0.471-3.791l26.476-15.285
				c1.942-1.122,4.882-1.244,6.565-0.272L230.732,303c1.683,0.972,1.472,2.669-0.472,3.791l-26.475,15.285
				C201.843,323.199,198.904,323.32,197.221,322.349z"/>
			<g>
				<path fill="#D4ECFF" d="M225.933,319.029c0,0.842-0.592,1.867-1.321,2.288c-0.73,0.422-1.322,0.08-1.322-0.763
					s0.592-1.867,1.322-2.289C225.341,317.843,225.933,318.185,225.933,319.029z"/>
				<path fill="#D4ECFF" d="M230.185,316.574c0,0.842-0.592,1.867-1.321,2.289c-0.73,0.421-1.322,0.079-1.322-0.764
					s0.592-1.867,1.322-2.289C229.593,315.389,230.185,315.731,230.185,316.574z"/>
				<path fill="#D4ECFF" d="M234.437,314.119c0,0.843-0.592,1.867-1.322,2.289c-0.729,0.421-1.321,0.08-1.321-0.764
					c0-0.842,0.592-1.867,1.321-2.288C233.845,312.934,234.437,313.276,234.437,314.119z"/>
			</g>
		</g>
		<g>
			<path fill="#396CAA" d="M237.967,298.007L237.967,298.007v-11.288l-25.314-0.015l-8.749-5.052
				c-2.009-1.159-5.517-1.014-7.835,0.325l-8.163,4.713l-25.337-0.015v11.61c-0.058,0.785,0.38,1.543,1.345,2.1l32.719,18.89
				c2.009,1.159,5.516,1.015,7.835-0.324l31.592-18.24C237.396,299.939,238.042,298.939,237.967,298.007z"/>
			<path fill="#396CAA" d="M200.268,280.876c-1.469,0.035-2.994,0.405-4.199,1.102l-8.163,4.713l-25.337-0.015v11.61
				c-0.058,0.785,0.38,1.543,1.345,2.1l32.719,18.89c0.965,0.558,2.277,0.81,3.636,0.777V280.876z"/>
			<path fill="#5793CE" d="M165.436,286.678l-2.867-0.002v11.61c-0.058,0.785,0.38,1.543,1.345,2.1l1.522,0.879V286.678z"/>
			<path fill="#5793CE" d="M197.137,319.523c1.731,0.742,4.236,0.701,6.262-0.071v-13.183h-6.262V319.523z"/>
			<path fill="#D4ECFF" d="M196.632,307.708l-32.719-18.891c-2.008-1.16-1.756-3.185,0.563-4.523l31.593-18.24
				c2.318-1.338,5.826-1.484,7.835-0.324l32.718,18.89c2.009,1.159,1.757,3.185-0.563,4.523l-31.592,18.24
				C202.147,308.722,198.641,308.867,196.632,307.708z"/>
			<path fill="#5793CE" d="M197.221,304.308l-27.418-15.83c-1.683-0.972-1.472-2.669,0.471-3.791l26.476-15.285
				c1.942-1.122,4.882-1.244,6.565-0.271l27.418,15.829c1.683,0.972,1.472,2.669-0.472,3.791l-26.475,15.285
				C201.843,305.158,198.904,305.279,197.221,304.308z"/>
			<g>
				<path fill="#D4ECFF" d="M225.933,300.988c0,0.842-0.592,1.867-1.321,2.288c-0.73,0.422-1.322,0.08-1.322-0.763
					s0.592-1.867,1.322-2.289C225.341,299.803,225.933,300.144,225.933,300.988z"/>
				<path fill="#D4ECFF" d="M230.185,298.533c0,0.843-0.592,1.867-1.321,2.289c-0.73,0.421-1.322,0.079-1.322-0.764
					s0.592-1.867,1.322-2.289C229.593,297.348,230.185,297.69,230.185,298.533z"/>
				<path fill="#D4ECFF" d="M234.437,296.078c0,0.843-0.592,1.867-1.322,2.289c-0.729,0.421-1.321,0.08-1.321-0.764
					c0-0.842,0.592-1.867,1.321-2.288C233.845,294.893,234.437,295.235,234.437,296.078z"/>
			</g>
		</g>
		<g>
			<path fill="#396CAA" d="M237.967,279.967L237.967,279.967v-11.289l-25.314-0.015l-8.749-5.052
				c-2.009-1.159-5.517-1.014-7.835,0.325l-8.163,4.713l-25.337-0.014v11.61c-0.058,0.784,0.38,1.542,1.345,2.099l32.719,18.891
				c2.009,1.158,5.516,1.014,7.835-0.325l31.592-18.24C237.396,281.898,238.042,280.898,237.967,279.967z"/>
			<path fill="#396CAA" d="M200.268,262.835c-1.469,0.035-2.994,0.405-4.199,1.102l-8.163,4.713l-25.337-0.014v11.61
				c-0.058,0.784,0.38,1.542,1.345,2.099l32.719,18.891c0.965,0.557,2.277,0.81,3.636,0.776V262.835z"/>
			<path fill="#5793CE" d="M165.436,268.637l-2.867-0.001v11.61c-0.058,0.784,0.38,1.542,1.345,2.099l1.522,0.879V268.637z"/>
			<path fill="#5793CE" d="M197.137,301.482c1.731,0.742,4.236,0.701,6.262-0.071v-13.183h-6.262V301.482z"/>
			<path fill="#D4ECFF" d="M196.632,289.667l-32.719-18.89c-2.008-1.16-1.756-3.185,0.563-4.523l31.593-18.24
				c2.318-1.338,5.826-1.484,7.835-0.324l32.718,18.89c2.009,1.159,1.757,3.185-0.563,4.523l-31.592,18.24
				C202.147,290.681,198.641,290.826,196.632,289.667z"/>
			<path fill="#FFFFFF" d="M236.059,268.88l-31.592,18.24c-2.319,1.338-5.826,1.484-7.835,0.324l-32.719-18.89
				c-0.447-0.259-0.776-0.562-1.002-0.89c-0.689,1.11-0.377,2.314,1.002,3.111l32.719,18.89c2.009,1.159,5.516,1.015,7.835-0.324
				l31.592-18.24c1.802-1.04,2.35-2.493,1.564-3.634C237.309,267.974,236.785,268.461,236.059,268.88z"/>
			<g>
				<path fill="#D4ECFF" d="M225.933,282.947c0,0.842-0.592,1.867-1.321,2.288c-0.73,0.422-1.322,0.08-1.322-0.763
					s0.592-1.867,1.322-2.289C225.341,281.762,225.933,282.103,225.933,282.947z"/>
				<path fill="#D4ECFF" d="M230.185,280.492c0,0.843-0.592,1.867-1.321,2.289c-0.73,0.421-1.322,0.079-1.322-0.764
					s0.592-1.867,1.322-2.289C229.593,279.307,230.185,279.649,230.185,280.492z"/>
				<path fill="#D4ECFF" d="M234.437,278.037c0,0.843-0.592,1.867-1.322,2.289c-0.729,0.421-1.321,0.08-1.321-0.763
					s0.592-1.868,1.321-2.289C233.845,276.852,234.437,277.194,234.437,278.037z"/>
			</g>
			<g>
				<path fill="#5793CE" d="M198.566,277.956l-15.311-8.84c-0.939-0.543-0.821-1.49,0.264-2.116l14.783-8.536
					c1.085-0.626,2.727-0.694,3.666-0.151l15.312,8.839c0.939,0.543,0.821,1.49-0.264,2.117l-14.784,8.535
					C201.147,278.43,199.507,278.498,198.566,277.956z"/>
				<path fill="#D4ECFF" d="M200.032,270.554l-2.118-1.224c-0.13-0.075-0.113-0.206,0.037-0.293l2.045-1.181
					c0.15-0.087,0.377-0.096,0.507-0.021l2.119,1.224c0.13,0.075,0.113,0.206-0.037,0.293l-2.045,1.181
					C200.39,270.62,200.162,270.628,200.032,270.554z"/>
				<path fill="#396CAA" d="M183.256,269.116l0.044,0.024c0.071-0.051,0.137-0.104,0.22-0.15l14.783-8.536
					c1.085-0.626,2.727-0.694,3.666-0.151l15.268,8.814c0.866-0.62,0.912-1.465,0.044-1.966l-15.312-8.839
					c-0.939-0.543-2.581-0.475-3.666,0.151L183.52,267C182.435,267.625,182.316,268.573,183.256,269.116z"/>
			</g>
		</g>
	</g>
	<path fill="#D4ECFF" d="M149.99,87.72c0,0.567-0.398,0.797-0.89,0.513c-0.491-0.283-0.89-0.973-0.89-1.54
		c0-0.567,0.398-0.797,0.89-0.514C149.592,86.463,149.99,87.153,149.99,87.72z"/>
	<path fill="#D4ECFF" d="M157.823,92.47c0,0.567-0.398,0.797-0.89,0.513c-0.491-0.283-0.889-0.973-0.889-1.54
		c0-0.567,0.397-0.797,0.889-0.514C157.425,91.213,157.823,91.903,157.823,92.47z"/>
	<path fill="#D4ECFF" d="M165.656,97.22c0,0.567-0.398,0.797-0.889,0.513c-0.491-0.283-0.89-0.973-0.89-1.54
		c0-0.567,0.398-0.797,0.89-0.514C165.258,95.963,165.656,96.653,165.656,97.22z"/>
	<path fill="#D4ECFF" d="M173.49,101.97c0,0.567-0.398,0.797-0.89,0.513c-0.491-0.283-0.89-0.973-0.89-1.54
		c0-0.567,0.398-0.797,0.89-0.514C173.092,100.713,173.49,101.403,173.49,101.97z"/>
</g>
<circle fill="#D4ECFF" cx="154.649" cy="97.197" r="0.8"/>
<circle fill="#D4ECFF" cx="161.953" cy="101.572" r="0.8"/>
<circle fill="#D4ECFF" cx="169.256" cy="105.947" r="0.8"/>
<circle fill="#D4ECFF" cx="176.56" cy="110.152" r="0.8"/>
</svg>
